<svg width="167" height="21" viewBox="0 0 167 21" fill="none" xmlns="http://www.w3.org/2000/svg">
<path d="M73.6243 11.5861L72.0371 17.4268C71.707 17.4268 71.2753 17.503 70.6277 17.503C67.5169 17.503 67.8597 16.5634 69.1802 11.4845C70.5388 6.18974 71.3388 5.22474 73.2814 5.22474C75.2241 5.22474 75.1733 6.49447 74.6908 8.08163H79.4396C80.2141 5.11047 79.7063 2.46944 74.1449 2.46944C67.9613 2.46944 66.2852 3.73916 64.2791 11.4845C62.4253 18.6585 63.0093 20.563 69.7262 20.563C71.8828 20.6062 74.0376 20.4103 76.151 19.979L78.3984 11.5861H73.6243Z" fill="#E2E8F0"/>
<path d="M84.9629 17.3506C84.3407 17.3506 84.1249 17.1602 84.2392 16.6523L85.2803 12.4368H91.629L92.3527 9.66879H86.0041L86.7532 6.79921C86.8478 6.41692 87.074 6.08015 87.3921 5.84798C87.7101 5.6158 88.0998 5.50304 88.4927 5.52948H93.5717L94.2827 2.74878H86.9056C83.8328 2.74878 82.906 3.30746 81.7124 7.91657L79.5158 16.3222C78.8428 19.1536 79.6935 20.3853 82.0552 20.3853H88.4039C88.9402 20.4001 89.4675 20.2447 89.91 19.9413C90.3525 19.6379 90.6876 19.2022 90.8671 18.6965L91.3877 17.3506H84.9629Z" fill="#E2E8F0"/>
<path d="M157.655 17.3506C157.033 17.3506 156.817 17.1602 156.931 16.6523L158.01 12.4368H164.359L165.07 9.66879H158.721L159.445 6.85C159.53 6.45602 159.753 6.10569 160.075 5.86317C160.397 5.62066 160.795 5.50219 161.197 5.52948H166.276L167 2.74878H159.597C156.525 2.74878 155.611 3.30746 154.417 7.91657L152.22 16.3603C151.547 19.1917 152.385 20.4234 154.76 20.4234H161.108C161.645 20.4382 162.172 20.2828 162.615 19.9794C163.057 19.676 163.392 19.2403 163.572 18.7346L164.092 17.3887L157.655 17.3506Z" fill="#E2E8F0"/>
<path d="M52.9784 17.3633H51.7087L54.8068 5.52947H56.3305C59.0858 5.52947 59.0858 6.43098 57.7653 11.5226C56.4447 16.6142 55.6575 17.4141 53.0419 17.4141L52.9784 17.3633ZM57.0542 2.71068H50.7056L46.2742 19.852C46.2512 19.9126 46.2435 19.978 46.2518 20.0423C46.2601 20.1066 46.2842 20.1679 46.3219 20.2207C46.3595 20.2734 46.4097 20.3161 46.4678 20.3448C46.526 20.3735 46.5903 20.3874 46.6552 20.3853H52.2673C59.3905 20.3853 60.584 19.0267 62.5394 11.4972C64.2409 4.9454 63.187 2.73607 57.0161 2.73607L57.0542 2.71068Z" fill="#E2E8F0"/>
<path d="M146.062 2.68529C142.405 2.68529 140.691 2.76147 139.714 2.68529L135.27 19.8266C135.247 19.8872 135.239 19.9526 135.247 20.0169C135.255 20.0812 135.28 20.1425 135.317 20.1953C135.355 20.248 135.405 20.2907 135.463 20.3194C135.521 20.3481 135.586 20.362 135.651 20.3599H139.879L143.688 5.46599C144.081 5.46599 144.678 5.46599 145.275 5.46599C147.345 5.46599 147.611 6.20243 147.065 8.31018L144.081 19.8647C144.058 19.9253 144.051 19.9907 144.059 20.055C144.067 20.1193 144.091 20.1806 144.129 20.2334C144.167 20.2861 144.217 20.3288 144.275 20.3575C144.333 20.3862 144.398 20.4001 144.462 20.398H148.767L151.89 8.31018C152.97 4.12008 151.128 2.69799 146.05 2.69799L146.062 2.68529Z" fill="#E2E8F0"/>
<path d="M109.24 2.71068L108.504 5.59296H113.214C113.214 5.59296 113.214 5.59296 113.214 5.68184C112.492 6.23266 111.984 7.0186 111.78 7.90386L108.681 19.852C108.658 19.9126 108.651 19.978 108.659 20.0423C108.667 20.1066 108.691 20.1679 108.729 20.2207C108.767 20.2734 108.817 20.3161 108.875 20.3448C108.933 20.3735 108.998 20.3874 109.062 20.3853H113.621L117.43 5.59296H119.779C120.332 5.63676 120.884 5.49258 121.344 5.18379C121.805 4.87499 122.148 4.41966 122.318 3.89152L122.763 2.71068H109.24Z" fill="#E2E8F0"/>
<path d="M43.0494 20.3853L47.4807 3.24395C47.5038 3.18333 47.5115 3.11796 47.5032 3.05364C47.4949 2.98932 47.4708 2.92805 47.4331 2.87528C47.3954 2.82251 47.3453 2.77987 47.2871 2.75115C47.229 2.72243 47.1646 2.70852 47.0998 2.71066H42.605L38.1736 19.852C38.1506 19.9126 38.1429 19.978 38.1512 20.0423C38.1595 20.1066 38.1836 20.1679 38.2213 20.2206C38.259 20.2734 38.3091 20.3161 38.3673 20.3448C38.4254 20.3735 38.4897 20.3874 38.5546 20.3853H43.0494Z" fill="#E2E8F0"/>
<path d="M126.204 17.6681C124.16 17.6681 123.855 16.9189 125.277 11.4083C126.47 6.8246 127.601 5.22475 129.416 5.22475C131.461 5.22475 131.689 6.32941 130.369 11.4083C129.048 16.4872 127.829 17.6681 126.204 17.6681ZM130.127 2.43135C124.782 2.43135 122.509 3.38364 120.35 11.5099C118.535 18.5569 119.995 20.5884 125.429 20.5884C130.864 20.5884 133.162 19.4584 135.206 11.5099C136.692 5.77073 136.4 2.43135 130.127 2.43135Z" fill="#E2E8F0"/>
<path d="M2.74805 11.6877L5.54145 1.97425C5.71502 1.43267 6.05266 0.958451 6.50763 0.617226C6.9626 0.276 7.51239 0.0846474 8.0809 0.0696564H16.55C16.5793 0.0705048 16.6076 0.0805719 16.6309 0.0984287C16.6542 0.116285 16.6713 0.141025 16.6797 0.169135C16.6882 0.197244 16.6875 0.227295 16.6779 0.255023C16.6683 0.282751 16.6502 0.306745 16.6262 0.323601C11.7548 3.69547 7.21424 7.52179 3.06548 11.7511C3.04492 11.7753 3.01673 11.7918 2.98556 11.7978C2.95438 11.8039 2.92208 11.7991 2.89399 11.7843C2.86589 11.7695 2.84366 11.7456 2.83098 11.7165C2.8183 11.6874 2.81592 11.6548 2.82423 11.6242L2.74805 11.6877Z" fill="#E2E8F0"/>
<path d="M9.46502 17.5157L12.2076 7.92925C12.2205 7.89926 12.2224 7.86571 12.2132 7.83442C12.2039 7.80313 12.1839 7.77609 12.1567 7.75799C12.1296 7.73988 12.0969 7.73186 12.0645 7.73531C12.032 7.73877 12.0018 7.75347 11.9791 7.77689C7.65522 11.5555 3.6583 15.6925 0.030949 20.144C-0.0452346 20.2456 0.0309489 20.3853 0.132527 20.3853H11.9918C16.9945 20.3853 19.7244 18.8362 20.7148 15.1413C20.9361 14.5587 21.0238 13.9339 20.9715 13.313C20.9193 12.692 20.7283 12.0906 20.4127 11.5533C20.0971 11.0159 19.6649 10.5562 19.1481 10.2081C18.6312 9.85998 18.0428 9.63229 17.4262 9.54181C17.4262 9.54181 17.3373 9.44023 17.4262 9.42753C18.6322 9.36208 19.7831 8.90132 20.7011 8.11644C21.6191 7.33157 22.2531 6.26625 22.5051 5.08507C23.3304 1.72029 20.7529 -0.120814 17.7944 0.00615884L13.2361 15.9285C13.0981 16.3677 12.8299 16.7546 12.4671 17.038C12.1044 17.3214 11.6641 17.488 11.2045 17.5157H9.46502Z" fill="#E2E8F0"/>
<path d="M35.228 13.3002C35.124 12.8431 34.9298 12.4114 34.6566 12.0305C34.6566 12.0305 34.6566 11.9289 34.6566 11.9162C35.6234 11.6615 36.5012 11.1451 37.1934 10.4238C37.8856 9.70243 38.3654 8.80411 38.58 7.82767C39.3292 4.95809 37.5135 2.65988 32.9298 2.65988H26.1494L21.7054 19.8012C21.6823 19.8618 21.6746 19.9272 21.6829 19.9915C21.6912 20.0558 21.7153 20.1171 21.753 20.1699C21.7907 20.2226 21.8408 20.2653 21.899 20.294C21.9571 20.3227 22.0215 20.3366 22.0863 20.3345H26.3399L30.1491 5.44058H31.9521C33.59 5.44058 34.1995 6.44367 33.844 7.81497C33.6718 8.61102 33.2305 9.32342 32.5945 9.83221C31.9585 10.341 31.1667 10.6151 30.3522 10.6084H29.7301L31.495 19.1536C31.5198 19.3362 31.5808 19.512 31.6744 19.6707C31.768 19.8294 31.8924 19.9678 32.0403 20.0778C32.1881 20.1878 32.3564 20.2671 32.5353 20.3112C32.7142 20.3553 32.9001 20.3632 33.0821 20.3345H36.8913L35.2407 13.2494L35.228 13.3002Z" fill="#E2E8F0"/>
<path d="M93.0892 14.4176C91.2989 18.7219 93.6352 20.6646 98.422 20.6646C102.79 20.6646 105.202 19.6361 106.244 15.5857C106.437 14.9606 106.48 14.2984 106.367 13.6538C106.254 13.0091 105.99 12.4005 105.596 11.8781C103.958 10.1005 100.822 9.77036 99.7171 8.74188C99.4574 8.49954 99.2744 8.18631 99.1909 7.841C99.1074 7.49569 99.127 7.13347 99.2473 6.7992C99.3488 6.26587 99.643 5.78855 100.074 5.45834C100.505 5.12812 101.042 4.96813 101.584 5.00889C103.552 5.00889 103.603 6.27861 103.12 7.66262H107.348C108.351 4.65336 107.043 2.29167 102.066 2.29167C97.8633 2.29167 95.6032 3.94232 94.7906 7.09124C94.547 8.15615 94.677 9.27243 95.1588 10.2529C96.3143 12.2336 99.3616 12.4749 101.05 13.643C101.377 13.8568 101.616 14.181 101.723 14.5564C101.83 14.9318 101.799 15.3332 101.634 15.6873C101.57 16.3068 101.271 16.8783 100.799 17.2844C100.327 17.6905 99.7171 17.9005 99.095 17.8712C97.6729 17.8712 96.8222 17.0459 97.6348 14.4684L93.0892 14.4176Z" fill="#E2E8F0"/>
</svg>
