<svg width="170" height="60" viewBox="0 0 170 60" fill="none" xmlns="http://www.w3.org/2000/svg">
<g clip-path="url(#clip0)">
<path d="M4.1557 53.905H5.20848V59.8824H4.33014L1.04662 55.6639V59.8824H0V53.905H0.995316L4.1557 58.0659V53.905ZM6.90565 53.905H11.3528V54.9016H7.95842V56.4262H10.9423V57.3632H7.95842V58.9454H11.3528V59.8824H6.90565V53.905ZM16.3848 53.905H17.2631L18.7263 58.3557L20.13 53.9009H21.2423L19.1367 59.9399H18.2646L16.7952 55.6639L15.332 59.9399H14.4536L12.3481 53.905H13.4604L14.9215 58.3557L16.3848 53.905ZM24.8706 53.905H29.6686V54.7269L26.0999 58.9454H29.6686V59.8824H24.7536V59.12L28.2649 54.844H24.8706V53.905ZM31.0149 53.905H35.462V54.9016H32.0697V56.4262H35.0536V57.3632H32.0697V58.9454H35.462V59.8824H31.0149V53.905ZM40.0281 53.905L42.6611 59.9399H41.5488L40.9639 58.4769H38.1545L37.5121 59.9399H36.4573L39.0903 53.905H40.0281ZM37.9205 47.5783V48.5152H132.196V47.5783H37.9205ZM38.0375 30.8194V40.6043H45.9385V38.3194H40.73V36.7372H45.411V34.6289H40.73V33.1639H45.8789V30.8214L38.0375 30.8194ZM38.5054 57.5317H40.5576L39.5643 55.1296L38.5054 57.5317ZM44.8262 53.8988V58.9392H47.927V59.8762H43.7734V53.905L44.8262 53.8988ZM52.4337 53.8988L55.0666 59.9337H53.9543L53.3695 58.4707H50.5621L49.9177 59.9337H48.8649L51.4979 53.8988H52.4337ZM49.3903 40.5981H53.1355C54.8539 40.5981 56.2001 40.1296 57.1742 39.1926C57.6509 38.7423 58.0276 38.1965 58.2797 37.5907C58.5318 36.985 58.6537 36.3329 58.6375 35.6769C58.6569 35.0262 58.539 34.3788 58.2914 33.7768C58.0439 33.1749 57.6723 32.6321 57.2009 32.1837C56.2432 31.2673 54.8874 30.8084 53.1335 30.807H49.3903V40.5981ZM50.913 57.5337H52.9652L51.9699 55.1317L50.913 57.5337ZM52.0827 38.1981V33.2214H53.195C54.0159 33.2214 54.6692 33.4365 55.1549 33.8666C55.6406 34.2968 55.8841 34.9022 55.8855 35.6831V35.7529C55.8855 36.5337 55.6419 37.1392 55.1549 37.5694C54.6678 37.9995 54.0145 38.2139 53.195 38.2125L52.0827 38.1981ZM60.3346 53.905H61.3874V59.8824H60.5091L57.2255 55.6639V59.8824H56.1728V53.905H57.1681L60.3346 58.0659V53.905ZM61.0365 30.8214V40.6063H68.8779V38.3194H63.6694V36.7372H68.3505V34.6289H63.6694V33.1639H68.8184V30.8214H61.0365ZM63.0887 59.8844H65.3707C65.587 59.8857 65.8028 59.8657 66.0151 59.8248C66.2149 59.7844 66.4107 59.7259 66.6 59.6502C66.7905 59.5737 66.9762 59.4859 67.1561 59.3872C67.3275 59.2918 67.4771 59.1616 67.5953 59.005C67.7451 58.8915 67.8737 58.7524 67.975 58.594C68.0772 58.4257 68.165 58.249 68.2376 58.0659C68.3196 57.8985 68.379 57.7209 68.4141 57.5378C68.4907 57.1118 68.4907 56.6755 68.4141 56.2495C68.3787 56.0665 68.3193 55.8889 68.2376 55.7214C68.1655 55.5388 68.0776 55.3628 67.975 55.1954C67.8741 55.0367 67.7455 54.8975 67.5953 54.7844C67.4605 54.6535 67.3134 54.5358 67.1561 54.4331C66.9808 54.3171 66.7946 54.2186 66.6 54.1392C66.4025 54.1015 66.2072 54.0528 66.0151 53.9933C65.8056 53.9333 65.5886 53.9035 65.3707 53.905H63.0846L63.0887 59.8844ZM64.1414 14.8844C64.1025 14.8844 64.084 14.8659 64.084 14.8248C64.0429 14.8248 64.004 14.8659 63.967 14.942V14.9995L63.85 21.2111C63.8512 21.2335 63.857 21.2554 63.8668 21.2756C63.8767 21.2957 63.8905 21.3136 63.9075 21.3283L64.0245 21.4454L81.4682 25.781C81.5088 25.78 81.5487 25.7702 81.5851 25.7522C81.6024 25.7449 81.6171 25.7326 81.6273 25.7168C81.6376 25.7011 81.6429 25.6827 81.6426 25.6639V25.6043L81.4682 22.4995C81.4724 22.435 81.451 22.3715 81.4087 22.3228C81.3703 22.2858 81.3314 22.2468 81.2917 22.2057L64.1414 14.8844ZM64.1414 58.9474V54.9016H65.3112C65.4581 54.9013 65.6048 54.9109 65.7504 54.9303C65.8879 54.9509 66.0336 54.9796 66.1895 55.0187C66.4172 55.1309 66.6251 55.2794 66.8052 55.4584C66.9919 55.6535 67.1402 55.8822 67.2423 56.1324V56.0728C67.2813 56.231 67.3101 56.3769 67.3306 56.5125C67.3496 56.639 67.3592 56.7668 67.3593 56.8947V56.9522C67.3592 57.0802 67.3496 57.2079 67.3306 57.3344C67.312 57.4634 67.2825 57.5906 67.2423 57.7146V57.7721C67.204 57.8892 67.1449 57.9985 67.0679 58.0947C66.9945 58.1871 66.9165 58.2755 66.8339 58.3598C66.737 58.4595 66.6289 58.5478 66.5117 58.6228C66.4097 58.6824 66.3017 58.7313 66.1895 58.7687C66.0662 58.8492 65.9255 58.8992 65.7791 58.9146C65.6431 58.9336 65.506 58.9439 65.3687 58.9454H64.1374L64.1414 58.9474ZM69.5264 56.3687C69.7173 56.3693 69.9062 56.3294 70.0805 56.2515C70.2438 56.1816 70.3927 56.082 70.5197 55.9577C70.6363 55.8413 70.7266 55.7011 70.7844 55.5468C70.8407 55.3969 70.8699 55.2383 70.8706 55.0783V53.9646H69.7009V55.0783H70.1688C70.1806 55.279 70.1185 55.4771 69.9943 55.6351C69.8347 55.7878 69.6258 55.8782 69.4053 55.8899L69.5264 56.3687ZM74.4517 60.0015C74.5986 60.0018 74.7453 59.9922 74.8909 59.9728C75.0197 59.9542 75.1467 59.9246 75.2705 59.8844H75.3157C75.4273 59.8474 75.5346 59.7985 75.6358 59.7385C75.7343 59.6789 75.841 59.6111 75.958 59.5331C76.0405 59.4495 76.1186 59.3617 76.192 59.27C76.2692 59.1737 76.329 59.0645 76.3685 58.9474C76.4502 58.8582 76.5012 58.7452 76.5142 58.6248C76.5332 58.499 76.5428 58.3719 76.5429 58.2447V58.1851C76.5444 58.0769 76.5348 57.9688 76.5142 57.8625C76.4908 57.7534 76.4613 57.6457 76.4259 57.5399C76.3849 57.4574 76.3361 57.379 76.2802 57.3057C76.2177 57.2226 76.1491 57.1443 76.075 57.0714C75.958 56.9933 75.8513 56.9255 75.7528 56.8659C75.6516 56.806 75.5443 56.7571 75.4326 56.72H75.4901C75.3731 56.681 75.2356 56.642 75.0797 56.6029L74.6097 56.4858L74.2588 56.3687L73.9079 56.2515C73.8262 56.2513 73.7458 56.2309 73.6739 56.192C73.6089 56.1643 73.5497 56.1246 73.4995 56.0748L73.4987 56.0745C73.3817 55.9573 73.3817 55.9573 73.2647 55.8402L73.2655 55.8406C73.263 55.7906 73.2526 55.7414 73.2347 55.6947C73.218 55.6478 73.2083 55.5986 73.206 55.5488V55.4789C73.2082 55.3882 73.2285 55.2988 73.2655 55.2159C73.2954 55.1277 73.3578 55.0542 73.44 55.0105C73.541 54.9411 73.649 54.8826 73.7622 54.8358C73.8647 54.7954 73.9741 54.7752 74.0844 54.7762H74.2013C74.33 54.7784 74.4578 54.7985 74.581 54.8358C74.7185 54.8748 74.8437 54.9139 74.9627 54.9529H75.0202C75.14 55.0331 75.2671 55.1019 75.3998 55.1584C75.5427 55.2217 75.6722 55.3117 75.7815 55.4235L76.3664 54.6016C76.2104 54.5235 76.0545 54.4351 75.8985 54.3365C75.7306 54.2338 75.5541 54.1458 75.3711 54.0735C75.2058 53.9925 75.027 53.9431 74.8437 53.9276C74.6494 53.9071 74.4542 53.8968 74.2588 53.8968H74.1418C74.0147 53.8975 73.8878 53.9078 73.7622 53.9276C73.6333 53.9453 73.5063 53.9741 73.3825 54.0139C73.2624 54.0553 73.1451 54.1047 73.0316 54.1618C72.9233 54.2139 72.8241 54.2833 72.7381 54.3673L72.5042 54.6036C72.4232 54.6856 72.3628 54.7856 72.3277 54.8954L72.2107 55.2468C72.1727 55.36 72.1533 55.4787 72.1532 55.5981V55.6577C72.1526 55.7754 72.1622 55.893 72.182 56.0091C72.1963 56.1109 72.2261 56.21 72.2702 56.3029H72.3277C72.3605 56.4077 72.4104 56.5063 72.4754 56.5947C72.5293 56.6687 72.5995 56.7292 72.6806 56.7714C72.7665 56.8556 72.8657 56.925 72.9741 56.9769C73.0873 57.0349 73.2046 57.0843 73.325 57.1248H73.2635C73.3804 57.1618 73.5159 57.2132 73.6739 57.2707C73.8268 57.3287 73.9831 57.3774 74.1418 57.4166H74.2013C74.3208 57.4174 74.4393 57.4375 74.5523 57.4762C74.652 57.5084 74.7494 57.5476 74.8437 57.5933C74.9163 57.5913 74.9879 57.6113 75.0489 57.6509C75.115 57.6939 75.1835 57.733 75.2541 57.768L75.3711 57.8851C75.3882 57.8997 75.4023 57.9176 75.4126 57.9377C75.4228 57.9578 75.4289 57.9797 75.4306 58.0022C75.4495 58.0218 75.4643 58.045 75.4742 58.0704C75.484 58.0958 75.4888 58.1229 75.4881 58.1502V58.2961C75.4886 58.4062 75.4691 58.5155 75.4306 58.6187C75.4095 58.6683 75.3775 58.7125 75.337 58.7481C75.2965 58.7837 75.2485 58.8097 75.1966 58.8242C75.1135 58.9042 75.0131 58.9639 74.9032 58.9988C74.7704 59.0405 74.6319 59.0606 74.4927 59.0584H74.3758C74.218 59.0578 74.0608 59.0378 73.9079 58.9988C73.746 58.9579 73.5891 58.8993 73.44 58.8242C73.284 58.744 73.128 58.6577 72.9721 58.5591C72.8161 58.4604 72.6786 58.3741 72.5616 58.2961L71.9193 58.9988C72.0765 59.1573 72.253 59.2954 72.4446 59.4098C72.6499 59.5269 72.8551 59.644 73.089 59.7611C73.297 59.8423 73.513 59.9009 73.7334 59.9358C73.9659 59.9765 74.2013 59.9978 74.4373 59.9995L74.4517 60.0015ZM72.3995 30.8235V40.6084H75.0325V35.2146L79.1882 40.6043H81.5872V30.8214H78.8845V35.9789L74.9052 30.8214L72.3995 30.8235ZM80.4749 53.9091V59.8865H81.4702V55.6639L84.7537 59.8824H85.63V53.905H84.6368V58.0659L81.4169 53.905L80.4749 53.9091ZM111.012 22.031C111.031 22.0308 111.049 22.0251 111.065 22.0145C111.08 22.0039 111.093 21.9889 111.1 21.9714C111.118 21.9351 111.128 21.895 111.129 21.8543V21.7968L108.906 15.1166C108.826 15.0385 108.769 14.9995 108.73 14.9995C108.691 14.9995 108.672 15.02 108.672 15.0591L84.2674 25.6043L84.2099 25.6639H84.2674L111.012 22.031ZM85.0287 15.1166C85.0344 15.0633 85.055 15.0127 85.0882 14.9707C85.122 14.9175 85.1612 14.8679 85.2052 14.8228L105.335 0.059079C105.334 0.0510147 105.335 0.0428287 105.338 0.0351439C105.34 0.0274591 105.345 0.0204782 105.35 0.0147322C105.356 0.00898624 105.363 0.00462674 105.371 0.00198545C105.379 -0.000655837 105.387 -0.00150931 105.395 -0.000510015C105.426 -0.00248666 105.457 0.00782942 105.481 0.0282571C105.492 0.0401431 105.5 0.0540987 105.505 0.0692835C105.511 0.0844683 105.513 0.100568 105.512 0.116613L107.032 7.38237V7.4399C107.032 7.48128 107.022 7.52202 107.004 7.55908C106.98 7.60236 106.951 7.64185 106.915 7.6762L85.1457 20.342C85.1326 20.3596 85.1137 20.3722 85.0924 20.3774C85.071 20.3827 85.0485 20.3803 85.0287 20.3707C84.9897 20.3522 84.9713 20.3029 84.9713 20.2248L85.0287 15.1166ZM86.7854 59.9399H87.8341L88.419 58.4769H91.2284L91.8133 59.9399H92.9256L90.3501 53.905H89.3548L86.7854 59.9399ZM88.774 40.6043H89.8268V37.1481H92.2278C93.1778 37.1694 94.1106 36.8928 94.8957 36.357C95.6564 35.8296 96.0367 35.0385 96.0367 33.9837V33.9262C96.0534 33.4985 95.9724 33.0726 95.7999 32.6809C95.6274 32.2892 95.368 31.9421 95.0414 31.6659C94.3751 31.1029 93.4954 30.8214 92.4023 30.8214H88.774V40.6043ZM88.8335 57.5378L89.8268 55.1358L90.8816 57.5337L88.8335 57.5378ZM89.8268 36.1515V31.8735H92.2894C92.9634 31.8433 93.6295 32.0282 94.1918 32.4015C94.6788 32.7522 94.9224 33.2796 94.9224 33.9837C94.9338 34.2865 94.8736 34.5876 94.7466 34.8626C94.6196 35.1375 94.4295 35.3785 94.1918 35.5659C93.7034 35.9563 93.0501 36.1515 92.2319 36.1515H89.8268ZM94.8116 59.8824H95.8664V54.9016H97.738V53.905H92.9297V54.9016H94.8116V59.8824ZM98.0315 40.6043H99.1417L100.313 38.0276H105.649L106.759 40.6043H107.931L103.542 30.7618H102.489L98.0315 40.6043ZM98.9077 59.8824H99.9626V53.905H98.9077V59.8824ZM100.763 37.031L102.996 32.0543L105.161 37.0351L100.763 37.031ZM104.516 59.9995H104.574C104.986 60.0026 105.394 59.9229 105.774 59.7652C106.149 59.6067 106.495 59.3888 106.8 59.12L107.151 58.6516C107.271 58.4892 107.369 58.3125 107.445 58.1255H107.385C107.471 57.9467 107.54 57.7602 107.591 57.5687C107.647 57.3679 107.676 57.1607 107.679 56.9522V56.8947C107.681 56.4824 107.602 56.0738 107.445 55.6926C107.295 55.3318 107.076 55.0038 106.8 54.7269L106.333 54.3735C106.17 54.2534 105.993 54.1553 105.805 54.0817C105.616 54.0059 105.42 53.9468 105.22 53.905C105.008 53.8657 104.792 53.8465 104.576 53.8474C104.151 53.8356 103.729 53.9129 103.336 54.0743C102.943 54.2356 102.588 54.4775 102.294 54.7844C102.023 55.0537 101.805 55.3715 101.652 55.7214C101.491 56.0913 101.411 56.4914 101.418 56.8947V56.9522C101.413 57.3647 101.493 57.7737 101.652 58.1543C101.8 58.5154 102.018 58.8436 102.294 59.12C102.429 59.251 102.576 59.3686 102.733 59.4714C102.908 59.5882 103.094 59.6866 103.289 59.7652H103.226C103.424 59.8445 103.631 59.903 103.841 59.9399C104.044 59.9783 104.25 59.9983 104.457 59.9995H104.516ZM104.516 59.0625C104.369 59.0632 104.223 59.0529 104.077 59.0317C103.941 59.0131 103.811 58.9632 103.698 58.8858C103.581 58.8474 103.471 58.7882 103.375 58.7111C103.263 58.6188 103.155 58.5207 103.053 58.4173C102.97 58.3315 102.901 58.233 102.848 58.1255C102.788 58.0031 102.719 57.885 102.643 57.7721C102.602 57.6483 102.573 57.5211 102.557 57.392C102.535 57.2463 102.525 57.0994 102.526 56.9522V56.8947C102.527 56.7667 102.537 56.639 102.557 56.5125C102.573 56.3834 102.602 56.2561 102.643 56.1324V56.0728C102.721 55.9557 102.791 55.8488 102.848 55.7522C102.905 55.6557 102.975 55.5468 103.053 55.4296C103.17 55.3516 103.277 55.2735 103.375 55.1954C103.474 55.1173 103.581 55.0392 103.698 54.9611V55.0187C103.812 54.9422 103.941 54.8923 104.077 54.8728C104.369 54.8344 104.664 54.8344 104.956 54.8728C105.091 54.8926 105.221 54.9425 105.335 55.0187C105.452 55.0582 105.561 55.118 105.657 55.1954C105.754 55.2735 105.863 55.3516 105.98 55.4296C106.058 55.5468 106.136 55.6536 106.214 55.7522C106.299 55.8648 106.358 55.9945 106.388 56.1324C106.428 56.2563 106.458 56.3835 106.476 56.5125C106.515 56.8044 106.515 57.1001 106.476 57.392C106.458 57.521 106.428 57.6481 106.388 57.7721C106.345 57.897 106.287 58.0158 106.214 58.1255C106.145 58.2302 106.067 58.328 105.98 58.4173C105.791 58.6068 105.574 58.765 105.335 58.8858C105.099 59.0038 104.838 59.0643 104.574 59.0625H104.516ZM109.08 59.8844H110.133V55.6639L113.417 59.8824H114.238V53.905H113.244V58.0659L110.025 53.905H109.089L109.08 59.8844ZM111.656 40.6063H112.768V36.7967H115.518L118.328 40.6043H119.731L116.688 36.62C117.411 36.5296 118.086 36.2116 118.617 35.7118C118.87 35.4658 119.069 35.1693 119.2 34.8415C119.331 34.5137 119.392 34.1619 119.378 33.8091V33.6981C119.378 33.3455 119.308 32.9964 119.173 32.6707C119.046 32.3539 118.856 32.0655 118.617 31.8221C118.272 31.513 117.876 31.2656 117.447 31.0906C117.001 30.9108 116.523 30.8207 116.042 30.8255H111.656V40.6063ZM112.768 35.8022V31.8159H115.744C116.524 31.8159 117.139 31.992 117.591 32.344C117.812 32.5165 117.988 32.7396 118.106 32.9945C118.223 33.2495 118.277 33.5288 118.264 33.8091C118.276 34.0919 118.218 34.3733 118.096 34.6285C117.973 34.8836 117.79 35.1047 117.562 35.2721C117.032 35.6437 116.394 35.8293 115.748 35.8002L112.768 35.8022ZM115.334 59.9399H116.446L117.031 58.4769H119.848L120.493 59.9399H121.603L118.97 53.905H117.977L115.334 59.9399ZM117.449 57.5337L118.445 55.1317L119.497 57.5337H117.449ZM122.721 59.8824H126.877V58.9454H123.717V53.905H122.721V59.8824ZM123.77 30.8214V40.6063H124.88V37.968L126.933 35.8598L130.678 40.6043H132.084L127.753 35.0974L131.903 30.8214H130.499L124.88 36.6817V30.8214H123.77ZM132.722 59.9995C132.879 59.9991 133.036 59.9895 133.192 59.9707C133.331 59.9541 133.468 59.9245 133.602 59.8824C133.722 59.8417 133.84 59.7929 133.953 59.7365C134.061 59.6838 134.16 59.6145 134.247 59.531C134.353 59.464 134.442 59.3742 134.509 59.268C134.569 59.1694 134.637 59.0625 134.714 58.9454C134.76 58.8428 134.789 58.7341 134.803 58.6228C134.821 58.4968 134.83 58.3699 134.831 58.2426V58.1831C134.832 58.0749 134.822 57.9669 134.803 57.8605C134.779 57.7514 134.75 57.6437 134.714 57.5378C134.673 57.4558 134.624 57.3774 134.569 57.3036C134.506 57.221 134.437 57.1428 134.364 57.0694C134.284 56.9909 134.196 56.9219 134.101 56.8639C133.999 56.8042 133.891 56.7553 133.779 56.718C133.661 56.6796 133.534 56.6406 133.397 56.6009C133.262 56.5618 133.114 56.5228 132.96 56.4837C132.806 56.4447 132.666 56.4057 132.549 56.3666L132.199 56.2495C132.126 56.2516 132.054 56.2308 131.993 56.1899C131.934 56.1529 131.866 56.1139 131.788 56.0728C131.75 56.0358 131.711 55.9968 131.671 55.9557C131.631 55.9146 131.592 55.8755 131.554 55.8385C131.551 55.7888 131.542 55.7397 131.525 55.6926C131.508 55.646 131.498 55.5967 131.497 55.5468V55.4789C131.506 55.3836 131.536 55.2915 131.587 55.2102C131.638 55.1289 131.706 55.0605 131.788 55.0105C131.871 54.93 131.971 54.8702 132.082 54.8358C132.195 54.7971 132.313 54.777 132.432 54.7762H132.49C132.638 54.7756 132.786 54.7956 132.929 54.8358C133.066 54.8755 133.193 54.9146 133.311 54.9529C133.465 55.031 133.612 55.0988 133.748 55.1584C133.879 55.213 133.991 55.3052 134.07 55.4235L134.655 54.6016C134.539 54.5235 134.393 54.4351 134.218 54.3365C134.038 54.2378 133.852 54.1499 133.662 54.0735H133.719C133.532 53.997 133.335 53.9479 133.134 53.9276C132.94 53.9071 132.745 53.8968 132.549 53.8968H132.49C132.344 53.8961 132.198 53.9064 132.053 53.9276C131.923 53.9452 131.796 53.9741 131.671 54.0139C131.559 54.0519 131.451 54.1015 131.349 54.1618C131.252 54.2194 131.144 54.2892 131.027 54.3673C130.868 54.5287 130.739 54.7173 130.647 54.9241C130.55 55.1355 130.5 55.3655 130.501 55.5981V55.6577C130.501 55.7754 130.51 55.893 130.53 56.0091C130.544 56.1109 130.574 56.21 130.618 56.3029C130.651 56.4072 130.701 56.5057 130.764 56.5947C130.818 56.6681 130.889 56.7285 130.969 56.7714C131.086 56.8495 131.193 56.9173 131.291 56.9769C131.393 57.0384 131.501 57.0881 131.614 57.1248H131.546C131.696 57.1614 131.843 57.2102 131.985 57.2707C132.127 57.3316 132.274 57.3804 132.424 57.4166H132.482C132.601 57.4174 132.72 57.4375 132.833 57.4762C132.933 57.5081 133.031 57.5472 133.126 57.5933C133.208 57.5938 133.288 57.6135 133.36 57.6509C133.425 57.6806 133.484 57.7201 133.537 57.768L133.654 57.8851L133.77 58.0022C133.772 58.0528 133.782 58.1028 133.799 58.1502C133.816 58.1971 133.826 58.2463 133.828 58.2961C133.829 58.4097 133.798 58.5213 133.74 58.6187C133.692 58.7055 133.621 58.7769 133.534 58.8242C133.426 58.8978 133.308 58.9565 133.184 58.9988C133.07 59.0377 132.951 59.0578 132.831 59.0584H132.714C132.537 59.0601 132.36 59.0401 132.188 58.9988C132.026 58.9583 131.869 58.8997 131.72 58.8242C131.567 58.7477 131.42 58.6591 131.281 58.5591C131.141 58.4606 130.995 58.3727 130.842 58.2961L130.257 58.9988C130.415 59.1569 130.591 59.2949 130.782 59.4098L131.369 59.7611C131.577 59.8426 131.792 59.9012 132.012 59.9358C132.246 59.9768 132.484 59.9981 132.722 59.9995ZM137.647 54.9016V59.8824H138.7V54.9016H140.576V53.905H135.765V54.9016H137.647ZM140.52 59.9399H141.632L142.217 58.4769H145.027L145.669 59.9399H146.781L144.148 53.905H143.153L140.52 59.9399ZM142.613 57.5337L143.607 55.1317L144.661 57.5337H142.613ZM147.879 59.8783H150.104C150.33 59.8786 150.555 59.8587 150.777 59.8187C150.969 59.7868 151.156 59.728 151.331 59.644H151.391C151.547 59.5659 151.713 59.4776 151.887 59.381C152.07 59.2773 152.238 59.1487 152.386 58.9988C152.512 58.8699 152.629 58.7326 152.737 58.5879C152.856 58.4251 152.954 58.2476 153.028 58.0598C153.067 57.9036 153.117 57.7269 153.176 57.5317C153.233 57.3417 153.262 57.1444 153.262 56.9461V56.8289C153.262 56.6323 153.243 56.4362 153.205 56.2433C153.169 56.0603 153.11 55.8828 153.028 55.7152C152.955 55.5278 152.857 55.3509 152.737 55.1892C152.63 55.0441 152.512 54.9068 152.386 54.7783C152.23 54.6604 152.064 54.5433 151.887 54.4269C151.712 54.3105 151.526 54.212 151.331 54.1331H151.391C151.185 54.0961 150.98 54.0468 150.775 53.9872C150.555 53.9284 150.329 53.8987 150.102 53.8988H147.879V59.8783ZM148.932 58.9413V54.9016H150.104C150.25 54.9013 150.396 54.9109 150.541 54.9303C150.671 54.9486 150.798 54.9782 150.923 55.0187C151.036 55.094 151.153 55.1626 151.274 55.2242C151.393 55.2841 151.493 55.3749 151.565 55.4872C151.643 55.5673 151.721 55.6536 151.801 55.7522C151.885 55.8653 151.945 55.9948 151.976 56.1324V56.0728C152.015 56.231 152.054 56.3769 152.093 56.5125C152.13 56.6366 152.15 56.7652 152.152 56.8947V56.9522C152.154 57.0915 152.134 57.2303 152.093 57.3632L151.976 57.7146V57.7721C151.936 57.8889 151.877 57.998 151.801 58.0947C151.721 58.1933 151.643 58.2796 151.565 58.3598C151.493 58.4715 151.392 58.5622 151.274 58.6228C151.16 58.6792 151.043 58.728 150.923 58.7687C150.808 58.8461 150.678 58.896 150.541 58.9146C150.396 58.9357 150.25 58.946 150.104 58.9454H148.932V58.9413ZM154.668 59.8783H155.721V53.905H154.668V59.8783ZM159.934 59.9954H159.993C160.161 59.9938 160.327 59.9738 160.49 59.9358C160.667 59.8968 160.831 59.8577 160.987 59.8187C161.143 59.7406 161.29 59.6625 161.426 59.5844C161.566 59.5049 161.694 59.4067 161.808 59.2926H161.748C161.866 59.1743 161.974 59.0465 162.07 58.9105C162.165 58.7786 162.235 58.6301 162.276 58.4728C162.355 58.3069 162.405 58.128 162.421 57.9447C162.44 57.7495 162.45 57.5543 162.45 57.3591V53.905H161.457V57.4803C161.461 57.6917 161.421 57.9016 161.34 58.0968C161.26 58.2732 161.162 58.4406 161.046 58.5961C160.892 58.7116 160.726 58.8095 160.55 58.8878C160.355 58.9695 160.145 59.0094 159.934 59.005C159.733 59.0039 159.535 58.9641 159.349 58.8878C159.161 58.8143 158.984 58.7161 158.822 58.5961C158.702 58.4334 158.604 58.2559 158.53 58.068C158.454 57.8821 158.414 57.6833 158.413 57.4824C158.412 57.4665 158.413 57.4504 158.418 57.4352C158.423 57.4199 158.431 57.4059 158.442 57.394C158.462 57.3692 158.473 57.3377 158.471 57.3057V53.9646H157.418V57.4207C157.418 57.6067 157.427 57.7926 157.447 57.9776C157.47 58.1691 157.52 58.3565 157.594 58.5344C157.634 58.6928 157.704 58.8421 157.8 58.9742C157.897 59.1091 158.005 59.2362 158.122 59.3543C158.222 59.4511 158.33 59.5397 158.444 59.6194C158.593 59.7223 158.762 59.7923 158.941 59.8248H158.883C159.039 59.8639 159.205 59.9029 159.38 59.942C159.562 59.9812 159.748 60.0005 159.934 59.9995V59.9954ZM164.147 53.9009V59.8783H165.202V55.6639L167.074 58.4173H167.133L169.005 55.6043V59.8824H170V53.905H168.896L167.082 56.7817L165.268 53.905L164.147 53.9009Z" fill="#E2E8F0"/>
</g>
<defs>
<clipPath id="clip0">
<rect width="170" height="60" fill="white"/>
</clipPath>
</defs>
</svg>
