<svg width="205" height="27" viewBox="0 0 205 27" fill="none" xmlns="http://www.w3.org/2000/svg">
<g clip-path="url(#clip0)">
<path fill-rule="evenodd" clip-rule="evenodd" d="M103.8 26.6399H100.83V13.9466H103.567V15.2799C103.998 14.7876 104.53 14.3887 105.129 14.1085C105.727 13.8284 106.38 13.6733 107.043 13.6533C107.805 13.5968 108.57 13.7089 109.281 13.9814C109.992 14.2539 110.631 14.6795 111.149 15.2265C112.16 16.4301 112.651 17.97 112.517 19.52V26.7065H109.465V20.0399C109.537 19.1441 109.332 18.2481 108.877 17.4666C108.626 17.1577 108.309 16.9054 107.948 16.727C107.587 16.5487 107.191 16.4484 106.787 16.4332C106.382 16.418 105.98 16.4882 105.606 16.639C105.232 16.7897 104.896 17.0175 104.621 17.3066C103.951 18.0666 103.896 19.24 103.896 20.9866V26.7199L103.8 26.6399Z" fill="#E2E8F0"/>
<path fill-rule="evenodd" clip-rule="evenodd" d="M2.99695 26.6399H0.0683594V13.9466H2.80534V15.2799C3.2374 14.7889 3.76957 14.3907 4.36795 14.1107C4.96633 13.8306 5.61791 13.6749 6.28136 13.6533C7.04317 13.5968 7.80821 13.7089 8.51919 13.9814C9.23018 14.2539 9.86869 14.6795 10.3868 15.2265C11.3981 16.4301 11.8889 17.97 11.7553 19.52V26.7065H8.70362V20.0399C8.77513 19.1441 8.57014 18.2481 8.1151 17.4666C7.87083 17.1499 7.5573 16.8902 7.19714 16.7064C6.83698 16.5226 6.43923 16.4193 6.03296 16.4039C5.62668 16.3886 5.22205 16.4617 4.84839 16.6178C4.47472 16.7739 4.14146 17.0093 3.87281 17.3066C3.18856 18.0666 3.13377 19.24 3.13377 20.9866V26.7199L2.99695 26.6399Z" fill="#E2E8F0"/>
<path fill-rule="evenodd" clip-rule="evenodd" d="M36.1282 18.0933L33.6238 26.6267H31.7216L26.9045 14.04H30.1752L32.6522 21.7867L35.0197 14.04H37.3872L39.6726 21.7867L42.1769 14.04H45.3792L40.5621 26.6267H38.7694L36.1282 18.0933Z" fill="#E2E8F0"/>
<path fill-rule="evenodd" clip-rule="evenodd" d="M80.8369 26.6267V9.48H83.7381V26.6267H80.8369Z" fill="#E2E8F0"/>
<path fill-rule="evenodd" clip-rule="evenodd" d="M127.598 22.3334C127.165 23.7133 126.278 24.9155 125.073 25.7543C123.869 26.5932 122.413 27.0217 120.934 26.9734C119.119 26.9734 117.378 26.271 116.095 25.0208C114.812 23.7705 114.091 22.0749 114.091 20.3068C114.091 18.4931 114.82 16.7513 116.122 15.4552C117.424 14.1591 119.196 13.4117 121.057 13.3733C122.51 13.323 123.94 13.7341 125.132 14.5445C126.324 15.355 127.214 16.5209 127.667 17.8667H124.218C123.889 17.3273 123.417 16.8851 122.85 16.5869C122.284 16.2887 121.645 16.1458 121.002 16.1735C120.464 16.1789 119.933 16.2925 119.441 16.5071C118.95 16.7217 118.51 17.0326 118.148 17.4205C117.786 17.8084 117.509 18.2649 117.337 18.7615C117.164 19.2581 117.098 19.7842 117.143 20.3068C117.174 21.2957 117.59 22.2363 118.306 22.9371C119.023 23.638 119.987 24.0466 121.002 24.08C121.671 24.1244 122.338 23.9825 122.927 23.6709C123.516 23.3592 124.002 22.8907 124.328 22.3201L127.598 22.3334Z" fill="#E2E8F0"/>
<path fill-rule="evenodd" clip-rule="evenodd" d="M163.945 0.0133362H171.513V0.54667L163.945 0.0133362Z" fill="#E2E8F0"/>
<path fill-rule="evenodd" clip-rule="evenodd" d="M162.755 1.96L171.458 1.64L171.404 2.56L162.755 1.96Z" fill="#E2E8F0"/>
<path fill-rule="evenodd" clip-rule="evenodd" d="M161.523 3.94666L171.376 3.54666L171.321 4.65333L161.523 3.94666Z" fill="#E2E8F0"/>
<path fill-rule="evenodd" clip-rule="evenodd" d="M160.278 5.98666L171.267 5.53333L171.212 6.71999L160.278 5.98666Z" fill="#E2E8F0"/>
<path fill-rule="evenodd" clip-rule="evenodd" d="M159.073 7.97333L171.185 7.49333L171.13 8.81333L159.073 7.97333Z" fill="#E2E8F0"/>
<path fill-rule="evenodd" clip-rule="evenodd" d="M157.609 26.36L157.336 26.7867L147.537 26.76L157.609 26.36Z" fill="#E2E8F0"/>
<path fill-rule="evenodd" clip-rule="evenodd" d="M158.937 24.16L158.266 25.3067L148.933 24.5067L158.937 24.16Z" fill="#E2E8F0"/>
<path fill-rule="evenodd" clip-rule="evenodd" d="M160.25 22.04L159.539 23.1867L150.178 22.44L160.25 22.04Z" fill="#E2E8F0"/>
<path fill-rule="evenodd" clip-rule="evenodd" d="M161.496 19.9733L160.852 21.0933L151.437 20.4267L161.496 19.9733Z" fill="#E2E8F0"/>
<path fill-rule="evenodd" clip-rule="evenodd" d="M162.809 17.88L162.125 19L152.737 18.3067L162.809 17.88Z" fill="#E2E8F0"/>
<path fill-rule="evenodd" clip-rule="evenodd" d="M142.077 20.8267C142.214 16.9601 139.655 13.6667 135.385 13.6667C133.57 13.649 131.823 14.3344 130.527 15.5722C129.231 16.8099 128.492 18.4986 128.474 20.2667C128.456 22.0348 129.159 23.7375 130.43 25.0002C131.7 26.263 133.433 26.9824 135.248 27.0001C136.59 27.1014 137.93 26.7837 139.074 26.0933C140.218 25.4029 141.107 24.3756 141.612 23.1601H138.286C137.918 23.576 137.455 23.9031 136.935 24.1159C136.415 24.3288 135.852 24.4214 135.289 24.3866C134.448 24.4217 133.622 24.163 132.959 23.657C132.297 23.1509 131.842 22.4308 131.676 21.6267H142.063L142.077 20.8267ZM131.498 19.0268C131.774 18.2288 132.306 17.5384 133.016 17.0582C133.726 16.5779 134.576 16.3332 135.44 16.3601C136.264 16.3362 137.071 16.5876 137.729 17.0727C138.386 17.5577 138.853 18.2473 139.053 19.0268H131.498Z" fill="#E2E8F0"/>
<path fill-rule="evenodd" clip-rule="evenodd" d="M26.6856 20.8267C26.8224 16.9601 24.2772 13.6667 19.9938 13.6667C18.1791 13.649 16.4313 14.3344 15.1353 15.5722C13.8392 16.8099 13.101 18.4986 13.0829 20.2667C13.0647 22.0348 13.7682 23.7375 15.0385 25.0002C16.3089 26.263 18.0421 26.9824 19.8568 27.0001C21.1994 27.096 22.5388 26.7764 23.684 26.0868C24.8292 25.3973 25.7216 24.373 26.234 23.1601H22.8813C22.5115 23.5744 22.0488 23.9005 21.5292 24.1132C21.0096 24.3259 20.4468 24.4193 19.8842 24.3866C19.0438 24.419 18.219 24.1592 17.5572 23.6535C16.8953 23.1479 16.4396 22.4296 16.2714 21.6267H26.6719L26.6856 20.8267ZM16.1072 19.0268C16.383 18.2288 16.9153 17.5384 17.6252 17.0582C18.335 16.5779 19.1847 16.3332 20.0484 16.3601C20.8749 16.3331 21.6857 16.5831 22.3457 17.0684C23.0057 17.5537 23.475 18.245 23.675 19.0268H16.1072Z" fill="#E2E8F0"/>
<path fill-rule="evenodd" clip-rule="evenodd" d="M57.4358 13.4C56.62 13.3836 55.8106 13.545 55.0671 13.8726C54.3236 14.2002 53.6648 14.6857 53.1387 15.2934V9.55995H50.0596V26.64H52.8923V25.0933C53.4642 25.7038 54.1623 26.1893 54.9407 26.518C55.719 26.8466 56.5601 27.0109 57.4084 27.0001C58.2979 27.0103 59.1801 26.8428 60.0007 26.508C60.8212 26.1733 61.5628 25.6784 62.1795 25.0538C62.7963 24.4291 63.2751 23.6881 63.5866 22.8762C63.8981 22.0643 64.0356 21.199 63.9907 20.3334C64.0648 18.5671 63.416 16.8445 62.1867 15.5443C60.9575 14.2441 59.2486 13.4727 57.4358 13.4ZM56.8883 24.2266C55.7995 24.2266 54.7552 23.8052 53.9853 23.0551C53.2154 22.3049 52.7829 21.2875 52.7829 20.2266C52.7829 19.1658 53.2154 18.1483 53.9853 17.3982C54.7552 16.648 55.7995 16.2266 56.8883 16.2266C57.9772 16.2266 59.0214 16.648 59.7914 17.3982C60.5613 18.1483 60.9938 19.1658 60.9938 20.2266C60.9938 21.2875 60.5613 22.3049 59.7914 23.0551C59.0214 23.8052 57.9772 24.2266 56.8883 24.2266Z" fill="#E2E8F0"/>
<path fill-rule="evenodd" clip-rule="evenodd" d="M96.3963 13.9467V15.6C95.8448 14.9561 95.1598 14.4332 94.3862 14.0655C93.6126 13.6978 92.7679 13.4938 91.9076 13.4667C90.0975 13.519 88.3826 14.2682 87.1385 15.5503C85.8944 16.8325 85.2226 18.5429 85.2705 20.3067C85.2174 21.1742 85.3493 22.0431 85.6579 22.8585C85.9664 23.6739 86.4449 24.4182 87.0633 25.0445C87.6817 25.6708 88.4265 26.1655 89.2508 26.4974C90.0752 26.8294 90.9611 26.9915 91.8529 26.9734C92.6964 26.9761 93.5322 26.816 94.312 26.5025C95.0918 26.189 95.8002 25.7283 96.3963 25.1467V26.6934H99.1333V13.9467H96.3963ZM92.5099 24.1867C91.421 24.1867 90.3768 23.7652 89.6068 23.015C88.8369 22.2649 88.4044 21.2476 88.4044 20.1867C88.4078 19.6686 88.5174 19.1563 88.7266 18.6799C88.9359 18.2036 89.2405 17.7728 89.6229 17.4127C90.0052 17.0525 90.4576 16.7704 90.9533 16.5827C91.449 16.3951 91.9783 16.3058 92.5099 16.32C93.5381 16.3784 94.5046 16.8176 95.2114 17.5476C95.9183 18.2776 96.312 19.2431 96.312 20.2466C96.312 21.2502 95.9183 22.2159 95.2114 22.9459C94.5046 23.6758 93.5381 24.115 92.5099 24.1734V24.1867Z" fill="#E2E8F0"/>
<path fill-rule="evenodd" clip-rule="evenodd" d="M76.3754 13.9467V15.6C75.8262 14.9535 75.1417 14.4288 74.3676 14.0609C73.5935 13.693 72.7476 13.4904 71.8867 13.4667C70.0766 13.519 68.3616 14.2682 67.1175 15.5503C65.8734 16.8325 65.2017 18.5429 65.2495 20.3067C65.1904 21.5863 65.5284 22.8537 66.2195 23.9434C66.9105 25.0331 67.9224 25.8947 69.1235 26.4157C70.3245 26.9368 71.6589 27.0931 72.9525 26.8643C74.2461 26.6356 75.4389 26.0324 76.3754 25.1334V26.6801H79.1124V13.9467H76.3754ZM72.4752 24.1867C71.3864 24.1867 70.3421 23.7652 69.5722 23.015C68.8023 22.2649 68.3697 21.2476 68.3697 20.1867C68.3732 19.6686 68.4827 19.1563 68.692 18.6799C68.9012 18.2036 69.2059 17.7728 69.5882 17.4127C69.9706 17.0525 70.4229 16.7704 70.9186 16.5827C71.4143 16.3951 71.9436 16.3058 72.4752 16.32C73.0242 16.2889 73.574 16.3673 74.0908 16.5505C74.6076 16.7337 75.0805 17.0179 75.4805 17.3856C75.8805 17.7533 76.1992 18.1967 76.417 18.6887C76.6348 19.1807 76.7472 19.7108 76.7472 20.2466C76.7472 20.7824 76.6348 21.3126 76.417 21.8046C76.1992 22.2966 75.8805 22.7401 75.4805 23.1078C75.0805 23.4755 74.6076 23.7597 74.0908 23.9429C73.574 24.1262 73.0242 24.2046 72.4752 24.1734V24.1867Z" fill="#E2E8F0"/>
<path fill-rule="evenodd" clip-rule="evenodd" d="M198.636 5.39993C198.636 -0.586739 190.946 0.0665944 190.946 0.0665944H177.425L176.877 0.94664L181.996 1.26663L176.522 1.48001L175.646 2.9066L180.271 3.22659L175.317 3.43997L174.428 4.91995L179.218 5.26663L174.072 5.45331L173.196 6.93329L178.26 7.27997L172.786 7.49335L171.883 8.95999L176.918 9.29332L157.76 10.0933L175.55 11.4266L156.391 12.1999L174.346 13.5332L155.105 14.3334L172.895 15.5866L153.832 16.3732L171.787 17.6267L163.699 17.96L163.576 19.2933L170.322 19.7733L163.48 20.0933L163.316 21.4266L169.132 21.8267L163.261 22.0666L163.069 23.6267L167.859 24L163.015 24.16L162.823 25.8534L166.409 26.1467L162.768 26.3067V26.9333H179.792C187.415 26.9333 192.205 24.1333 194.052 17.9733C194.599 15.04 191.096 13.6267 191.096 13.6267C198.5 10.5733 198.636 5.39993 198.636 5.39993ZM184.65 17.0399C184.312 18.1336 183.602 19.083 182.638 19.7323C181.673 20.3815 180.51 20.6921 179.341 20.6133H175.851L179.341 14.8933H182.762C182.762 14.8933 185.061 15.0266 184.65 17.0399ZM185.307 10.7866H181.886L184.815 5.94664H186.963C186.963 5.94664 189.413 6.0799 189.167 8.0399C188.92 10.1999 186.662 10.7866 185.307 10.7866Z" fill="#E2E8F0"/>
<path fill-rule="evenodd" clip-rule="evenodd" d="M202.674 0.613332C202.208 0.608059 201.75 0.737714 201.36 0.985891C200.97 1.23407 200.664 1.5896 200.481 2.00738C200.298 2.42515 200.247 2.88634 200.333 3.33257C200.42 3.7788 200.641 4.18997 200.967 4.51389C201.294 4.83781 201.712 5.0599 202.169 5.15207C202.625 5.24424 203.099 5.20234 203.531 5.03163C203.963 4.86091 204.333 4.56918 204.595 4.19325C204.856 3.81732 204.997 3.3741 205 2.91997C205.004 2.61944 204.946 2.3212 204.831 2.04237C204.716 1.76353 204.545 1.50967 204.329 1.2953C204.113 1.08093 203.855 0.910212 203.571 0.793182C203.287 0.676152 202.982 0.615069 202.674 0.613332ZM202.674 4.93332C202.401 4.93508 202.131 4.8843 201.879 4.78391C201.626 4.68351 201.397 4.53549 201.204 4.34836C201.01 4.16123 200.857 3.93871 200.752 3.69357C200.647 3.44843 200.594 3.18549 200.594 2.91997C200.545 2.62997 200.561 2.33317 200.642 2.05002C200.723 1.76687 200.866 1.50413 201.061 1.28016C201.256 1.0562 201.499 0.876366 201.773 0.752981C202.047 0.629595 202.345 0.565643 202.646 0.565643C202.948 0.565643 203.246 0.629595 203.52 0.752981C203.793 0.876366 204.036 1.0562 204.232 1.28016C204.427 1.50413 204.57 1.76687 204.65 2.05002C204.731 2.33317 204.748 2.62997 204.699 2.91997C204.682 3.43546 204.462 3.92479 204.085 4.287C203.708 4.64921 203.203 4.85662 202.674 4.86659V4.93332Z" fill="#E2E8F0"/>
<path fill-rule="evenodd" clip-rule="evenodd" d="M203.755 3.44C203.755 2.98667 203.755 2.96003 203.426 2.80003C203.538 2.73702 203.631 2.64532 203.694 2.53489C203.756 2.42446 203.787 2.29952 203.782 2.1734C203.782 1.58673 203.344 1.53326 202.934 1.53326H201.798V4.05328H202.126V2.96002H202.961C203.508 2.96002 203.372 3.4133 203.426 3.7333V4.05328H203.809C203.727 3.81328 203.782 3.76 203.755 3.44ZM202.961 2.66673H202.126V1.80003H202.961C203.153 1.80003 203.481 1.80002 203.426 2.29336C203.372 2.78669 203.18 2.66673 202.961 2.66673Z" fill="#E2E8F0"/>
</g>
<defs>
<clipPath id="clip0">
<rect width="205" height="27" fill="white"/>
</clipPath>
</defs>
</svg>
