<svg width="188" height="30" viewBox="0 0 188 30" fill="none" xmlns="http://www.w3.org/2000/svg">
<path fill-rule="evenodd" clip-rule="evenodd" d="M40.9 2.6C40.9 2.6 39.2 1.3 36 1.3C36 1.3 31.6 0.800003 28.8 4.5C28.8 4.5 26.8 6.4 25.1 12.6C25.1 12.6 23.3 19 21.9 22C21.9 22 20.3 24.9 18 26.4C18 26.4 14.9 29.2 9.7 29.2C9.7 29.2 7.5 29.6 4.3 28.2C4.3 28.2 1.8 27 0 24.9H1C1 24.9 3.7 27.7 8.7 27.7C8.7 27.7 13.2 28.6 16.1 24.2C16.1 24.2 18.2 21.9 19.6 16.1C19.6 16.1 21.2 10.9 22.4 8.6C22.4 8.6 23.7 5.7 27 2.9C27 2.9 29.2 0.700003 33.3 0.200003C33.3 0.200003 36.6 -0.299997 40.9 1.7V2.6ZM173.3 28.3C167.6 28.3 165.6 26.9 165.6 26.9C163.1 25.9 161.4 23.1 161.4 23.1C159.5 20.1 159.7 16.2 159.7 16.2C159.7 12 161.4 9.7 161.4 9.7C162.6 7.5 165.4 5.9 165.4 5.9C170.9 3.4 173.3 4.1 173.3 4.1H173.5C173.5 4.1 175.9 3.4 181.4 5.9C181.4 5.9 184.1 7.4 185.4 9.7C185.4 9.7 187.1 12 187.1 16.2C187.1 16.2 187.3 20.1 185.4 23.1C185.4 23.1 183.7 25.9 181.2 26.9C181.2 26.9 179.2 28.3 173.5 28.3H173.3ZM173.5 26.9C178.5 26.9 180.9 24 180.9 24C183.6 21.2 183.4 15.6 183.4 15.6C183.4 10.1 180.5 7.9 180.5 7.9C177.8 5.2 173.5 5.7 173.5 5.7H173.3C173.3 5.7 168.9 5.2 166.3 7.9C166.3 7.9 163.4 10.1 163.4 15.6C163.4 15.6 163.2 21.2 165.9 24C165.9 24 168.3 26.9 173.3 26.9H173.5ZM142.1 4.2C148 4.2 150.3 6 150.3 6C153.9 8 154.4 9.7 154.4 9.7C156.6 12.6 156.2 16.2 156.2 16.2C156.2 21.4 154 23.2 154 23.2C152.2 25.9 149.8 26.7 149.8 26.7C147.3 27.7 142.2 27.7 142.2 27.7H133.1V4.2H142.1ZM137.1 5.8V26.7H142.3C142.3 26.7 146.1 27.1 148.4 25.4C148.4 25.4 151.1 24.1 151.9 21.6C151.9 21.6 152.6 19.1 152.6 16.7C152.6 16.7 153 13.7 151.7 10.9C151.7 10.9 150.7 8.7 148.9 7.6C148.9 7.6 147.1 5.8 142.7 5.8H137.1V5.8ZM101.3 4.2V27.5H120.3V26H105.9V16.2H117.1V14.7H105.9V5.8H120.3V4.2H101.3ZM99.6 4.6C99.6 4.6 98 3.4 95.9 3.4C93.8 3.4 91.2 4.7 90.1 5.7C90.1 5.7 88 7.3 86 11.3C86 11.3 84.5 13.9 83.1 17.5C83.1 17.5 81.9 21 81.2 23C81.2 23 79.9 26.4 78 26.8C78 26.8 74.2 28.2 71.4 25.3V26C71.4 26 73.8 28.3 75.5 28.3C75.5 28.3 77.7 28.8 80.5 27.5C80.5 27.5 83 26.2 85 22.3C85 22.3 86.7 19 88.2 14.5C88.2 14.5 89.7 9.1 90.4 8.3C90.4 8.3 91.6 5.9 93.4 5C93.4 5 94.6 4.5 95.9 4.5C95.9 4.5 96.9 4.3 99.5 5.2V4.6H99.6ZM128.4 4.1V27.6H124V4.1H128.4ZM68.4 4.1V27.6H64V4.1H68.4ZM38.3 4.1V27.6H42.7V16.3H55.6V27.5H60.1V4.1H55.7V14.7H42.7V4.1H38.3Z" fill="#E2E8F0"/>
</svg>
