<svg id="Layer_1" data-name="Layer 1" xmlns="http://www.w3.org/2000/svg" xmlns:xlink="http://www.w3.org/1999/xlink" width="367.06" height="179.41" viewBox="0 0 367.06 179.41">
  <defs>
    <style>
      .cls-1 {
        fill: url(#linear-gradient);
      }

      .cls-2 {
        fill: url(#linear-gradient-2);
      }

      .cls-3 {
        fill: #4299e1;
      }
    </style>
    <linearGradient id="linear-gradient" x1="55.39" y1="212.02" x2="169.52" y2="212.02" gradientUnits="userSpaceOnUse">
      <stop offset="0.02" stop-color="#24637f"/>
      <stop offset="1" stop-color="#4299e1"/>
    </linearGradient>
    <linearGradient id="linear-gradient-2" x1="256.33" y1="212.06" x2="103.4" y2="212.06" gradientUnits="userSpaceOnUse">
      <stop offset="0" stop-color="#24637f"/>
      <stop offset="0.1" stop-color="#2c7199"/>
      <stop offset="0.22" stop-color="#3480b3"/>
      <stop offset="0.36" stop-color="#3a8bc8"/>
      <stop offset="0.51" stop-color="#3f93d6"/>
      <stop offset="0.7" stop-color="#4198de"/>
      <stop offset="1" stop-color="#4299e1"/>
    </linearGradient>
  </defs>
  <path class="cls-1" d="M158.46,289.94a45.23,45.23,0,0,1-8.3-9.3L91.62,192.47l34.66-42.54q9-10.8,17.6-15.58a54.53,54.53,0,0,1,16.84-6.29v-4.29c-5.7.5-13.41,0-23.13,0q-9.56,0-17.59-.25L103.4,123v5q10.06.25,14.33,4.52T120,144.65q-2,7.8-11.32,18.85L90.84,185.88q-8.3,9.8-16.59,14.83a39.46,39.46,0,0,1-18.86,5.53v5a29.2,29.2,0,0,1,8,1.38,16.68,16.68,0,0,1,6.41,4.4,59.77,59.77,0,0,1,7.16,9.8l36.7,57.82q3.78,6,1.76,8.42T103.4,296v5q10.81-.51,18-.63t11.94-.13q8.3,0,18.35.13t17.85.63v-5A38,38,0,0,1,158.46,289.94Z" transform="translate(-1.98 -122.35)"/>
  <path class="cls-2" d="M252.55,171.3,224,257.51,187.45,149.17a50,50,0,0,1-2.39-10.68,9.57,9.57,0,0,1,1.89-7.16q2.25-2.76,8-3.27v-5.71c-3.19.17-7.38,1-12.57,1.19s-10.89.25-17.09.25q-8.81,0-18.1-.25c-6.2-.17-39.47-.34-43.83-.51v5c2.52.17,33.31,1.34,36.41,3.52s5.74,6.37,7.92,12.57L203,301.76c1,0,2.05,0,3.15-.13s2.13-.12,3.14-.12q1.76,0,3.39.12c1.09.09,2.14.13,3.14.13l40.48-123.93Z" transform="translate(-1.98 -122.35)"/>
  <path class="cls-3" d="M360.62,123.54c-3.11.16-6.58.25-10.43.25q-7.54,0-15-.25L319.52,123v5q10.31.25,15.83,4.4t5.91,13.95q.38,9.81-5.15,26.9l-26.4,83.36-34.94-107.5q-3-9.28-2.38-13.69a6.67,6.67,0,0,1,4.9-5.79,46,46,0,0,1,12.06-1.63v-5q-5.79.25-15.08.51t-19.86.25c-5.7,0-11.43-.09-17.22-.25s-10.68-.34-14.7-.51v5a13.8,13.8,0,0,1,7.41,3q3.65,2.76,6.41,11.31L289.6,301.76c1,0,2,0,3.15-.13s2.13-.12,3.14-.12q1.75,0,3.39.12c1.09.09,2.14.13,3.14.13l45.5-146.55q4-13.32,10.06-19.36T369,128.06v-5C366.52,123.2,363.72,123.37,360.62,123.54Z" transform="translate(-1.98 -122.35)"/>
  <path class="cls-3" d="M75.13,123v5q-8,.25-12.19,1.89a9.43,9.43,0,0,0-5.65,6q-1.51,4.4-1.51,13.7V274.36q0,9,1.51,13.57a9.07,9.07,0,0,0,5.65,6,46.6,46.6,0,0,0,12.19,2v5q-6.28-.51-16.08-.63t-19.86-.13q-11.31,0-21.12.13T2,301v-5q8.29-.51,12.45-2a8.76,8.76,0,0,0,5.53-6q1.38-4.51,1.38-13.57V149.68q0-9.3-1.38-13.7a9.09,9.09,0,0,0-5.53-6Q10.28,128.32,2,128.06v-5q6.28.25,16.09.51t21.12.25q10.05,0,19.86-.25T75.13,123Z" transform="translate(-1.98 -122.35)"/>
</svg>
