<svg width="171" height="23" viewBox="0 0 171 23" fill="none" xmlns="http://www.w3.org/2000/svg">
<g clip-path="url(#clip0)">
<path fill-rule="evenodd" clip-rule="evenodd" d="M56.6001 18.2C45.9001 18.2 46.0001 4.4 56.6001 4.4C68.4001 4.4 67.6001 18.2 56.6001 18.2ZM56.6001 15.9C63.0001 16.1 63.3001 6.3 56.6001 6.5C50.3001 6.3 50.7001 16.2 56.6001 15.9Z" fill="#E2E8F0"/>
<path fill-rule="evenodd" clip-rule="evenodd" d="M128.8 18C118.1 18 118.2 4.2 128.8 4.2C140.6 4.2 139.8 18 128.8 18ZM128.8 15.7C135.2 15.9 135.5 6.1 128.8 6.3C122.5 6.1 122.9 16 128.8 15.7Z" fill="#E2E8F0"/>
<path fill-rule="evenodd" clip-rule="evenodd" d="M146.2 18C135.5 18 135.6 4.2 146.2 4.2C158 4.2 157.2 18 146.2 18ZM146.2 15.7C152.6 15.9 152.9 6.1 146.2 6.3C139.9 6.1 140.3 16 146.2 15.7Z" fill="#E2E8F0"/>
<path fill-rule="evenodd" clip-rule="evenodd" d="M155.4 4.7H161.7C168.1 4.7 171 6.8 171 10.9C171 16 167.8 17.9 161.7 17.9H155.5C155.5 17.9 156.2 17.1 156.2 16.4C156.2 15.5 156.2 6.5 156.2 6.5C156.2 5.9 155.4 4.7 155.4 4.7ZM159.5 15.3V7.2C159.5 6.8 159.9 6.7 159.9 6.7H162.3C162.3 6.7 167.4 6.4 167.4 11.1C167.4 16.4 162.5 15.8 162.5 15.8H159.9C159.9 15.8 159.5 15.9 159.5 15.3Z" fill="#E2E8F0"/>
<path d="M40.9001 6.7V15.2C40.9001 15.9 41.7001 15.8 41.7001 15.8H46.6C48.7 15.7 49.6 14.8 49.6 14.8C49.8 14.7 49.7001 15 49.7001 15C49.7001 15 49 17 49 17.9H37.1C37.1 17.9 37.6 17.1 37.6 16.2V6.2C37.6 5.4 36.8 4.6 36.8 4.6H41.8C41.8 4.6 40.9001 5.6 40.9001 6.7Z" fill="#E2E8F0"/>
<path d="M86.5 17.9H81.4C81.4 17.9 82.2 17 82.3 16.2V7C82.2 5.7 81.3 4.6 81.3 4.6H86.1C86.1 4.6 85.5 5.5 85.6 6.7C85.6 8 85.6 10.2 85.6 10.2C85.6 10.6 85.9 10.4 85.9 10.4L91.3 6.1C92.1 5.3 91.7 4.5 91.7 4.5H97.9L91.5 9.4C91.2 9.8 91.5 10 91.5 10L98.1 17.8H92.7C92.7 17.8 92.9 16.8 92.5 16.3C91.7 15.3 88.6 11.7 88.6 11.7C88.4 11.5 88.2 11.7 88.2 11.7L85.9 13.4C85.5 13.6 85.5 14.2 85.5 14.2V15.5C85.5 16.6 86.5 17.9 86.5 17.9Z" fill="#E2E8F0"/>
<path d="M79.8001 14.7V17.7L78.4001 17.6L74.0001 18.1C63.2001 18.1 63.8001 4.3 74.0001 4.3C76.2001 4.2 77.8001 4.6 77.8001 4.6C79.0001 5 80.0001 4.8 80.0001 4.8L79.1001 7.5C78.9001 7.7 78.5001 7.5 78.5001 7.5C78.5001 7.5 76.9001 6.6 74.6001 6.6C68.1001 6.6 68.2001 16.3 74.6001 15.8C77.4001 15.8 79.3001 14.5 79.3001 14.5C79.7001 14.2 79.8001 14.7 79.8001 14.7Z" fill="#E2E8F0"/>
<path d="M98.5 4.5H103.2C103.2 4.5 102.7 5.4 102.8 6C103.3 8.5 104.8 15.2 104.8 15.2C104.8 15.2 105 15.7 105.1 15.2C105.6 13.2 107.7 5.3 107.7 5.3C107.8 4.9 107.6 4.4 107.6 4.4H112.5V5.3L115 15.3C115 15.3 115.2 15.9 115.4 15.3C115.8 13.5 117.3 6 117.3 6C117.4 5.4 116.7 4.5 116.7 4.5H121.4C121.4 4.5 120.7 5.7 120.4 6.8C120 8.4 117.7 16.9 117.7 16.9C117.6 17.4 117.7 18 117.7 18H112.5C112.5 18 112.5 17.4 112.5 17C112.3 16.1 110.1 7.6 110.1 7.6C110 7.2 109.8 7.6 109.8 7.6L107.4 17C107.3 17.4 107.4 17.9 107.4 17.9H102.4C102.4 17.4 102.4 17.1 102.4 17.1L99.3 6.1C99.3 5.5 98.5 4.5 98.5 4.5Z" fill="#E2E8F0"/>
<path d="M0 4.5V11.5V11.6V17.9H0.1L8.2 11.2L0.1 4.5L14.1 9.2V13.2L0.1 17.9L14.1 22.4V0L0 4.5Z" fill="#E2E8F0"/>
<path d="M14.1001 9.2L28.0001 4.5L19.9001 11.2L28.0001 17.9L14.1001 13.2V9.2Z" fill="#E2E8F0"/>
</g>
<defs>
<clipPath id="clip0">
<rect width="171" height="22.4" fill="white"/>
</clipPath>
</defs>
</svg>
