<svg width="129" height="41" viewBox="0 0 129 41" fill="none" xmlns="http://www.w3.org/2000/svg">
<path d="M37.2793 41H32.6667L24.5794 24.0416L30.6663 19.6174H23.6682L21.5043 12.9536L19.3405 19.6174H11.928L18.0036 23.7323L15.8397 30.3945L21.4978 26.2813L23.2959 30.0869L8.21362 40.9174L13.2891 25.2886L0 15.6288H16.4272L21.5043 0L26.5798 15.6288H43.0103L30.0708 25.2886L37.2793 41Z" fill="#E2E8F0"/>
<path d="M86.464 36.6552V15.6029H91.8631V31.886H97.9517V36.6552H86.464ZM117.888 20.4239C114.701 20.4239 112.087 22.9809 112.087 26.1404C112.08 26.897 112.223 27.6476 112.509 28.3481C112.795 29.0486 113.217 29.685 113.752 30.22C114.287 30.7551 114.923 31.178 115.623 31.4641C116.323 31.7502 117.073 31.8936 117.829 31.886C121.074 31.886 123.656 29.3581 123.656 26.1679C123.66 25.4101 123.513 24.6591 123.225 23.9585C122.936 23.258 122.511 22.6219 121.974 22.0873C121.437 21.5528 120.799 21.1304 120.098 20.8448C119.396 20.5592 118.645 20.4161 117.888 20.4239ZM117.8 15.1657C124.062 15.1657 129 20.0498 129 26.2554C129 32.2892 123.918 37.1458 117.6 37.1458C111.571 37.1458 106.594 32.2309 106.594 26.3137C106.594 24.2045 107.201 22.1398 108.341 20.3656H104.858V36.6552H99.6608V20.3656H95.5839V15.5965H108.965V19.4992C110.012 18.1528 111.352 17.0628 112.883 16.3119C114.414 15.5611 116.095 15.1691 117.8 15.1657ZM76.0234 29.1573H79.3541V24.2149L76.0234 29.1573ZM73.0956 33.5297L70.9706 36.66H62.9657V15.6078H68.1642V31.6674L79.4399 15.6078H84.5801V36.66H79.3541V33.5248L73.0956 33.5297ZM50.9229 26.2035H53.1045C54.7974 26.2035 56.0048 24.908 56.0048 23.1267C56.0048 21.402 55.0337 20.2814 53.4784 20.2814H50.9196L50.9229 26.2035ZM45.6597 36.6552V15.6029H53.6985C58.4664 15.6029 61.1935 18.194 61.1935 22.7283C61.1935 26.4076 59.5864 28.5581 56.3123 29.2804L62.1695 36.6632H55.6584L50.863 29.797V36.6632L45.6597 36.6552Z" fill="#E2E8F0"/>
</svg>
