<svg width="186" height="41" viewBox="0 0 186 41" fill="none" xmlns="http://www.w3.org/2000/svg">
<path d="M60.2343 33.3667H59.1731V31.4345H58.8947C58.1293 32.5435 57.6248 33.0461 57.0247 33.5659V33.8779H57.6074V37.5862C57.6161 37.8288 57.6596 38.7906 58.8774 38.7906C59.8863 38.7906 60.2951 38.0021 60.53 37.5082L60.2517 37.3783C60.1299 37.6209 59.9385 37.9761 59.608 37.9761C59.1557 37.9761 59.1731 37.5082 59.1731 37.3263V33.8779H60.2343V33.3667Z" fill="#E2E8F0"/>
<path d="M64.7659 37.205C64.5485 37.4649 64.157 37.9761 63.496 37.9761C62.4261 37.9761 62.1826 36.8064 62.1478 35.836H64.9834C64.9486 35.2208 64.8007 33.228 62.8436 33.228C61.5476 33.228 60.5212 34.3024 60.5212 36.0006C60.5212 37.9588 61.6694 38.8079 62.8088 38.8079C63.7134 38.8079 64.3484 38.444 65.0356 37.3783L64.7659 37.205ZM62.0869 35.4115C62.0869 33.8345 62.4696 33.5833 62.8871 33.5833C63.2785 33.5833 63.4264 33.8692 63.496 34.1205C63.583 34.467 63.583 35.0562 63.6004 35.4115H62.0869V35.4115Z" fill="#E2E8F0"/>
<path d="M69.5933 37.3956C69.3237 37.7075 69.028 38.0368 68.393 38.0368C67.5145 38.0368 66.8273 37.1097 66.8273 35.5068C66.8273 34.9956 66.9056 33.5833 67.7841 33.5833C67.9494 33.5833 68.2451 33.6872 68.2451 34.0338C68.2451 34.649 68.2451 35.2122 68.8714 35.2122C68.9584 35.2122 69.6368 35.2122 69.6368 34.4757C69.6368 33.6526 68.6887 33.228 67.8885 33.228C66.8273 33.228 65.2356 33.9298 65.2356 36.1826C65.2356 37.5862 66.2011 38.7992 67.645 38.7992C68.5322 38.7992 69.2802 38.34 69.7934 37.5949L69.5933 37.3956Z" fill="#E2E8F0"/>
<path d="M75.6734 38.366C75.1254 38.366 75.1254 37.8721 75.1254 37.6815V34.8396C75.1254 33.5833 74.2382 33.228 73.6207 33.228C73.0379 33.228 72.5508 33.4793 72.0115 34.1205V30.906H69.8457V31.1832C70.2893 31.2699 70.4459 31.3045 70.4459 31.8504V37.6902C70.4459 38.2534 70.2545 38.2967 69.8457 38.3747V38.6519H72.5595V38.3747C72.0376 38.314 72.0115 37.9848 72.0115 37.7249V34.6576C72.0115 34.5537 72.4986 33.9905 72.9422 33.9905C73.5511 33.9905 73.5598 34.623 73.5598 34.9436V37.7162C73.5598 38.1407 73.4032 38.3314 73.0292 38.366V38.6433H75.6734V38.366Z" fill="#E2E8F0"/>
<path d="M81.71 38.366C81.1621 38.34 81.1621 37.9848 81.1621 37.7162V34.8396C81.1621 33.5833 80.2749 33.228 79.6573 33.228C78.7005 33.228 78.2134 33.9125 78.0568 34.1898H78.0307V33.3667H75.8823V33.6439C76.3346 33.7132 76.4825 33.7999 76.4825 34.3197V37.6815C76.4825 38.2447 76.2911 38.288 75.8823 38.366V38.6433H78.5961V38.366C78.0742 38.3054 78.0481 37.9761 78.0481 37.7162V34.6576C78.0481 34.5537 78.5352 33.9905 78.9875 33.9905C79.5964 33.9905 79.6051 34.623 79.6051 34.9436V37.7162C79.6051 38.1407 79.4485 38.3314 79.0745 38.366V38.6433H81.7187V38.366H81.71Z" fill="#E2E8F0"/>
<path d="M81.9011 36.018C81.9011 37.5082 82.884 38.7992 84.4497 38.7992C85.9805 38.7992 86.9808 37.5429 86.9808 36.018C86.9808 34.4237 85.9196 33.228 84.4497 33.228C82.884 33.228 81.9011 34.545 81.9011 36.018ZM83.5538 36.018C83.5538 34.7096 83.606 33.5833 84.441 33.5833C85.1281 33.5833 85.3195 34.2591 85.3195 36.018C85.3195 37.4736 85.2325 38.444 84.4497 38.444C83.5538 38.444 83.5538 37.257 83.5538 36.018Z" fill="#E2E8F0"/>
<path d="M89.834 38.366C89.399 38.366 89.286 38.0108 89.286 37.6815V30.906H87.1462V31.1832C87.6942 31.1832 87.7203 31.7204 87.7203 31.8504V37.6902C87.7203 37.9675 87.5985 38.3747 87.1462 38.3747V38.6519H89.834V38.366Z" fill="#E2E8F0"/>
<path d="M90.0688 36.018C90.0688 37.5082 91.0517 38.7992 92.6174 38.7992C94.1483 38.7992 95.1485 37.5429 95.1485 36.018C95.1485 34.4237 94.0874 33.228 92.6174 33.228C91.0517 33.228 90.0688 34.545 90.0688 36.018ZM91.7302 36.018C91.7302 34.7096 91.7824 33.5833 92.6174 33.5833C93.3045 33.5833 93.4959 34.2591 93.4959 36.018C93.4959 37.4736 93.4089 38.444 92.6261 38.444C91.7302 38.444 91.7302 37.257 91.7302 36.018Z" fill="#E2E8F0"/>
<path d="M97.0969 35.0822C97.0969 34.3631 97.1578 33.5833 97.8449 33.5833C98.5843 33.5833 98.5843 34.571 98.5843 35.0822C98.5843 35.732 98.5495 36.5552 97.8449 36.5552C97.1752 36.5552 97.0969 35.8707 97.0969 35.0822ZM98.7843 39.2325C99.3671 39.2325 99.6802 39.4058 99.6802 39.813C99.6802 40.6275 98.2625 40.6275 97.8102 40.6275C97.6188 40.6275 96.4359 40.6015 96.4359 39.8736C96.4359 39.6224 96.5402 39.4751 96.8273 39.2325H98.7843ZM100.559 34.0858V33.4793H99.0975C98.6452 33.2973 98.2625 33.228 97.8623 33.228C96.3228 33.228 95.5573 34.1291 95.5573 35.0476C95.5573 35.8707 96.0966 36.4859 96.9316 36.7978V36.8238C96.4446 36.9624 95.6182 37.4043 95.6182 38.1321C95.6182 38.7299 95.9923 38.8946 96.4967 39.0852V39.1112C95.8705 39.1718 95.4617 39.5097 95.4617 39.969C95.4617 40.6101 96.2967 41.0087 97.6884 41.0087C99.0975 41.0087 100.585 40.6968 100.585 39.2845C100.585 38.0108 99.2888 37.8982 98.7408 37.8895L98.0102 37.8808C97.1752 37.8722 96.8795 37.8548 96.8795 37.4649C96.8795 37.1184 97.297 36.8931 97.5144 36.8931C98.6104 36.8931 98.6104 36.8931 98.9322 36.7891C99.7411 36.5292 100.115 35.9313 100.115 35.2295C100.115 34.545 99.7759 34.2071 99.6629 34.0945H100.559V34.0858Z" fill="#E2E8F0"/>
<path d="M105.891 33.3667H104.186V33.6439C104.473 33.6526 104.803 33.6526 104.803 34.0165C104.803 34.1898 104.742 34.3371 104.682 34.5363L103.916 36.7371L103.107 34.623C103.003 34.3717 102.881 34.0771 102.881 33.9558C102.881 33.6786 103.186 33.6699 103.481 33.6439V33.3667H100.663V33.6439C100.941 33.6872 101.002 33.6872 101.133 33.9558C101.202 34.0945 101.542 34.8049 101.785 35.4201L103.133 38.7992L102.933 39.4057C102.855 39.657 102.568 40.3415 102.194 40.3415C102.055 40.3415 102.003 40.2029 102.003 40.1422C102.003 40.0989 102.037 40.0382 102.037 39.9343C102.037 39.7263 101.916 39.3538 101.402 39.3538C100.724 39.3538 100.663 39.9343 100.663 40.0989C100.663 40.4628 100.968 40.9913 101.698 40.9913C102.759 40.9913 102.994 40.3415 103.56 38.8166L105.238 34.2764C105.456 33.7046 105.647 33.6786 105.891 33.6439V33.3667V33.3667Z" fill="#E2E8F0"/>
<path d="M117.259 33.3667H115.737V33.6439C116.05 33.6786 116.276 33.7046 116.276 34.0685C116.276 34.3197 115.702 35.68 115.398 36.5552H115.372C115.172 35.6627 114.693 34.1724 114.693 33.9298C114.693 33.6872 114.945 33.6699 115.232 33.6439V33.3667H112.597V33.6439C112.867 33.6786 112.988 33.6786 113.093 33.9212C113.154 34.0598 113.215 34.2851 113.328 34.675L112.562 36.6331C111.997 35.0995 111.614 34.2331 111.614 33.9905C111.614 33.6959 111.884 33.6699 112.04 33.6526V33.3753H109.544V33.6526C109.84 33.7132 109.892 33.7912 110.188 34.5363L111.858 38.8166H112.127L113.502 35.3508H113.554L114.676 38.8166H114.937L116.685 34.2244C116.876 33.7219 117.033 33.6959 117.25 33.6526V33.3667H117.259Z" fill="#E2E8F0"/>
<path d="M117.833 31.6251C117.833 32.119 118.19 32.5089 118.711 32.5089C119.199 32.5089 119.581 32.1276 119.581 31.6251C119.581 31.1312 119.199 30.7327 118.711 30.7327C118.207 30.7327 117.833 31.1399 117.833 31.6251ZM120.034 38.366C119.599 38.3227 119.503 38.0714 119.503 37.7162V33.3667H117.337V33.6439C117.763 33.7219 117.937 33.7999 117.937 34.3197V37.6815C117.937 38.2274 117.746 38.262 117.337 38.366V38.6433H120.025V38.366H120.034Z" fill="#E2E8F0"/>
<path d="M123.417 33.3667H122.356V31.4345H122.078C121.312 32.5435 120.808 33.0461 120.208 33.5659V33.8779H120.79V37.5862C120.799 37.8288 120.842 38.7906 122.06 38.7906C123.069 38.7906 123.478 38.0021 123.713 37.5082L123.435 37.3783C123.313 37.6209 123.121 37.9761 122.791 37.9761C122.339 37.9761 122.347 37.5082 122.347 37.3263V33.8779H123.408V33.3667H123.417Z" fill="#E2E8F0"/>
<path d="M129.445 38.366C128.897 38.366 128.897 37.8721 128.897 37.6815V34.8396C128.897 33.5833 128.01 33.228 127.392 33.228C126.809 33.228 126.322 33.4793 125.783 34.1205V30.906H123.626V31.1832C124.061 31.2699 124.226 31.3045 124.226 31.8504V37.6902C124.226 38.2534 124.035 38.2967 123.626 38.3747V38.6519H126.34V38.3747C125.818 38.314 125.792 37.9848 125.792 37.7249V34.6576C125.792 34.5537 126.279 33.9905 126.731 33.9905C127.34 33.9905 127.349 34.623 127.349 34.9436V37.7162C127.349 38.1407 127.192 38.3314 126.818 38.366V38.6433H129.462V38.366H129.445Z" fill="#E2E8F0"/>
<path d="M136.716 34.9089V33.2454H136.473C136.438 33.332 136.395 33.4706 136.195 33.4706C135.977 33.4706 135.516 33.2194 134.994 33.2194C133.959 33.2194 133.202 33.8952 133.202 34.9003C133.202 36.6591 135.881 36.5898 135.881 37.6469C135.881 37.9934 135.647 38.4007 135.081 38.4007C133.829 38.4007 133.559 37.1963 133.498 36.8931H133.185V38.7819H133.463C133.576 38.5566 133.646 38.4613 133.768 38.4613C133.872 38.4613 134.638 38.7906 135.194 38.7906C136.247 38.7906 136.96 38.1147 136.96 37.023C136.96 35.1429 134.325 35.4115 134.325 34.2418C134.325 33.8865 134.638 33.5919 135.046 33.5919C135.69 33.5919 136.203 34.0858 136.438 34.9003H136.716V34.9089Z" fill="#E2E8F0"/>
<path d="M140.413 33.3667H139.352V31.4345H139.074C138.309 32.5435 137.804 33.0461 137.204 33.5659V33.8779H137.787V37.5862C137.795 37.8288 137.839 38.7906 139.057 38.7906C140.066 38.7906 140.474 38.0021 140.709 37.5082L140.431 37.3783C140.309 37.6209 140.118 37.9761 139.787 37.9761C139.335 37.9761 139.344 37.5082 139.344 37.3263V33.8779H140.405V33.3667H140.413Z" fill="#E2E8F0"/>
<path d="M145.841 33.3667H144.136V33.6439C144.423 33.6526 144.754 33.6526 144.754 34.0165C144.754 34.1898 144.693 34.3371 144.632 34.5363L143.866 36.7371L143.057 34.623C142.953 34.3717 142.831 34.0771 142.831 33.9558C142.831 33.6786 143.136 33.6699 143.431 33.6439V33.3667H140.613V33.6439C140.892 33.6872 140.953 33.6872 141.083 33.9558C141.153 34.0945 141.492 34.8049 141.735 35.4201L143.084 38.7992L142.883 39.4057C142.805 39.657 142.527 40.3415 142.144 40.3415C142.005 40.3415 141.953 40.2029 141.953 40.1422C141.953 40.0989 141.988 40.0382 141.988 39.9343C141.988 39.7263 141.866 39.3538 141.353 39.3538C140.674 39.3538 140.613 39.9343 140.613 40.0989C140.613 40.4628 140.918 40.9913 141.648 40.9913C142.71 40.9913 142.944 40.3415 143.51 38.8166L145.188 34.2764C145.406 33.7046 145.597 33.6786 145.841 33.6439V33.3667V33.3667Z" fill="#E2E8F0"/>
<path d="M148.659 38.366C148.224 38.366 148.111 38.0108 148.111 37.6815V30.906H145.971V31.1832C146.519 31.1832 146.546 31.7204 146.546 31.8504V37.6902C146.546 37.9675 146.424 38.3747 145.971 38.3747V38.6519H148.659V38.366V38.366Z" fill="#E2E8F0"/>
<path d="M153.147 37.205C152.93 37.4649 152.539 37.9761 151.878 37.9761C150.808 37.9761 150.564 36.8064 150.529 35.836H153.365C153.33 35.2208 153.182 33.228 151.225 33.228C149.929 33.228 148.903 34.3024 148.903 36.0006C148.903 37.9588 150.051 38.8079 151.19 38.8079C152.095 38.8079 152.73 38.444 153.417 37.3783L153.147 37.205ZM150.46 35.4115C150.46 33.8345 150.843 33.5833 151.26 33.5833C151.651 33.5833 151.799 33.8692 151.869 34.1205C151.956 34.467 151.956 35.0562 151.973 35.4115H150.46V35.4115Z" fill="#E2E8F0"/>
<path d="M67.5581 19.105C67.5581 25.2048 73.6816 28.4366 79.6572 28.4366C84.4672 28.4366 91.4083 26.2445 91.4083 19.4689C91.4083 14.6862 88.1987 12.9273 83.6061 11.8096C79.5789 10.8305 74.708 10.9865 74.708 8.40449C74.708 6.3077 76.9869 5.54523 79.2397 5.54523C81.7795 5.54523 84.3542 6.61962 84.3542 9.3749H90.6777C90.1297 3.04988 84.9891 0.641172 79.3615 0.641172C73.8381 0.641172 68.2714 3.04121 68.2714 9.43555C68.2714 13.967 72.2029 15.9165 76.3258 16.627C82.5276 17.7014 84.4585 17.944 84.4585 20.2921C84.4585 22.7874 80.9184 23.4286 79.7181 23.4286C76.9347 23.4286 74.0208 22.1896 73.9773 19.105H67.5581V19.105Z" fill="#E2E8F0"/>
<path d="M172.587 19.6422C168.917 19.6422 166.56 16.0985 166.76 12.5547C166.951 9.26226 168.708 5.83115 172.857 5.83115C176.893 5.83115 179.25 9.21027 178.981 13.1439C178.772 16.3411 176.936 19.6422 172.587 19.6422ZM186 0.693153H179.172V3.52642C179.172 3.52642 177.476 0 171.083 0C164.194 0 159.845 6.03043 159.845 12.6587C159.845 19.6769 163.602 25.2394 171.309 25.2394C177.102 25.2394 178.92 22.1982 178.92 22.1982L178.981 24.9189C178.754 28.5406 176.85 30.4814 173.205 30.4814C170.517 30.4814 168.821 29.615 168.447 27.5095L160.915 27.9254C161.184 33.0807 167.09 36.1306 172.457 36.1306C184.547 36.1306 185.982 29.7796 185.982 24.6243V0.693153H186Z" fill="#E2E8F0"/>
<path d="M92.5127 27.1456H99.619V12.3814C99.619 7.94527 102.707 6.9142 104.064 6.9142C107.934 6.9142 108.239 10.0421 108.239 12.884V27.1543H115.345V12.3901C115.345 7.9366 117.911 6.82756 119.738 6.82756C123.826 6.82756 123.956 9.99873 123.956 12.884V27.1456H131.063V10.0854C131.063 3.41378 127.244 0.866442 121.904 0.866442C118.407 0.866442 115.789 2.91124 114.336 5.15533C112.979 2.06213 110.161 0.866442 107.012 0.866442C103.759 0.866442 101.141 2.40871 99.3494 5.05135H99.2537V1.56826H92.5214V27.1456H92.5127Z" fill="#E2E8F0"/>
<path d="M139.578 10.9085C139.578 9.96407 140.822 5.75317 145.249 5.75317C149.468 5.75317 150.92 9.71281 150.92 10.9085H139.578ZM158.383 15.9165C158.923 8.24852 154.539 0.21661 145.188 0.21661C136.995 0.21661 132.133 6.82756 132.133 14.045C132.133 21.4011 137.143 27.6655 145.467 27.6655C151.434 27.6655 156.018 25.2481 158.053 19.1657L150.729 18.8451C150.546 19.7895 148.624 22.0249 145.597 22.0249C141.57 22.0249 139.395 18.9317 139.395 15.9165H158.383Z" fill="#E2E8F0"/>
<path d="M33.0613 27.1543C33.0613 22.5101 36.845 18.7411 41.5071 18.7411C46.1693 18.7411 49.953 22.5101 49.953 27.1543C49.953 31.7984 46.1693 35.5674 41.5071 35.5674C36.845 35.5674 33.0613 31.7984 33.0613 27.1543Z" fill="#E2E8F0"/>
<path d="M16.5349 27.1543C16.5349 22.5101 20.3186 18.7411 24.9808 18.7411C29.6429 18.7411 33.4266 22.5101 33.4266 27.1543C33.4266 31.7984 29.6429 35.5674 24.9808 35.5674C20.3186 35.5674 16.5349 31.7984 16.5349 27.1543Z" fill="#E2E8F0"/>
<path d="M0 27.1543C0 22.5101 3.78367 18.7411 8.44585 18.7411C13.108 18.7411 16.8917 22.5101 16.8917 27.1543C16.8917 31.7984 13.108 35.5674 8.44585 35.5674C3.78367 35.5674 0 31.7984 0 27.1543Z" fill="#E2E8F0"/>
<path d="M33.0613 10.6832C33.0613 6.0391 36.845 2.27008 41.5071 2.27008C46.1693 2.27008 49.953 6.0391 49.953 10.6832C49.953 15.3273 46.1693 19.0964 41.5071 19.0964C36.845 19.0964 33.0613 15.336 33.0613 10.6832Z" fill="#E2E8F0"/>
<path d="M16.5349 10.6832C16.5349 6.0391 20.3186 2.27008 24.9808 2.27008C29.6429 2.27008 33.4266 6.0391 33.4266 10.6832C33.4266 15.3273 29.6429 19.0964 24.9808 19.0964C20.3186 19.0964 16.5349 15.336 16.5349 10.6832Z" fill="#E2E8F0"/>
<path d="M49.5791 10.6832C49.5791 6.0391 53.3628 2.27008 58.0249 2.27008C62.6871 2.27008 66.4708 6.0391 66.4708 10.6832C66.4708 15.3273 62.6871 19.0964 58.0249 19.0964C53.3628 19.0964 49.5791 15.336 49.5791 10.6832Z" fill="#E2E8F0"/>
</svg>
