<svg width="170" height="27" viewBox="0 0 170 27" fill="none" xmlns="http://www.w3.org/2000/svg">
<g clip-path="url(#clip0)">
<path fill-rule="evenodd" clip-rule="evenodd" d="M18.2 17.4C17.8 13.9 8.4 9.7 8.4 9.7C6 8.2 7 6.3 7 6.3C8.5 3 16.4 6.1 16.4 6.1L17.9 2.5C13.7 -0.700003 8.4 -2.89828e-06 8.4 -2.89828e-06C1.8 0.799997 0.9 5.2 0.9 5.2C-0.6 12 4.6 13.6 4.6 13.6C9.4 15.8 10.8 16.8 10.8 16.8C14.7 19.3 11.3 21 11.3 21C7 23 1.7 20.2 1.7 20.2L0 24.2C4.4 27.2 11.3 25.9 11.3 25.9C20 24.6 18.2 17.4 18.2 17.4Z" fill="#E2E8F0"/>
<path fill-rule="evenodd" clip-rule="evenodd" d="M32.2 18.8C31.9 16 24.3 12.6 24.3 12.6C22.3 11.4 23.2 9.9 23.2 9.9C24.4 7.2 30.8 9.7 30.8 9.7L32 6.8C28.6 4.3 24.3 4.8 24.3 4.8C19 5.4 18.2 9 18.2 9C17 14.5 21.2 15.8 21.2 15.8C25.1 17.6 26.2 18.4 26.2 18.4C29.4 20.5 26.6 21.8 26.6 21.8C23.2 23.4 18.8 21.2 18.8 21.2L17.5 24.4C21.1 26.8 26.6 25.8 26.6 25.8C33.7 24.7 32.2 18.8 32.2 18.8Z" fill="#E2E8F0"/>
<path fill-rule="evenodd" clip-rule="evenodd" d="M38.6001 5.2L31.1001 25.4L35.4001 25.5L37.4001 21.1H46.5001L48.5001 25.1H52.7001L44.7001 5.2H38.6001ZM38.8001 17.5L41.7001 10.5L44.8001 17.5H38.8001Z" fill="#E2E8F0"/>
<path fill-rule="evenodd" clip-rule="evenodd" d="M66.5 18.5L58.1 5.4H52.5V25.1H56.6V12.3L65.6 25.7H70.7V5.5H66.5V18.5Z" fill="#E2E8F0"/>
<path fill-rule="evenodd" clip-rule="evenodd" d="M89.0001 14.3H82.1001V17.4H86.8001V22.1C83.6001 23.3 80.3001 22 80.3001 22C73.7001 17.6 77.3001 12.1 77.3001 12.1C81.4001 5.7 91.1001 9.7 91.1001 9.7V6.1C79.2001 2.2 74.2001 8.7 74.2001 8.7C67.5001 17.9 75.8001 24 75.8001 24C84.0001 29.1 91.8001 24.6 91.8001 24.6V17.3C91.6001 14 89.0001 14.3 89.0001 14.3Z" fill="#E2E8F0"/>
<path fill-rule="evenodd" clip-rule="evenodd" d="M166.7 14.3H159.8V17.4H164.4V22.1C161.2 23.3 157.9 22 157.9 22C151.3 17.6 154.9 12.1 154.9 12.1C159 5.7 168.7 9.7 168.7 9.7V6.1C156.9 2.3 151.8 8.7 151.8 8.7C145.1 17.9 153.4 24 153.4 24C161.6 29.1 169.4 24.6 169.4 24.6V17.3C169.3 14 166.7 14.3 166.7 14.3Z" fill="#E2E8F0"/>
<path fill-rule="evenodd" clip-rule="evenodd" d="M107.4 0.900002L101.1 11.4L94.7999 1.2H89.3999L98.6999 16.4L93.4999 26.2H98.4999L112.9 0.900002H107.4Z" fill="#E2E8F0"/>
<path fill-rule="evenodd" clip-rule="evenodd" d="M118 5C112.1 5 107.3 9.8 107.3 15.7C107.3 21.6 112.1 26.4 118 26.4C123.9 26.4 128.7 21.6 128.7 15.7C128.7 9.8 123.9 5 118 5ZM118 22.2C114.4 22.2 111.5 19.3 111.5 15.7C111.5 12.1 114.4 9.2 118 9.2C121.6 9.2 124.5 12.1 124.5 15.7C124.5 19.3 121.6 22.2 118 22.2Z" fill="#E2E8F0"/>
<path fill-rule="evenodd" clip-rule="evenodd" d="M144.3 18.3L135.9 5.3H130.2V25.5L134.5 25.4V12.3L143.4 25.6H148.6V5.2H144.3V18.3Z" fill="#E2E8F0"/>
</g>
<defs>
<clipPath id="clip0">
<rect width="169.4" height="26.4" fill="white"/>
</clipPath>
</defs>
</svg>
