<svg width="164" height="22" viewBox="0 0 164 22" fill="none" xmlns="http://www.w3.org/2000/svg">
<g clip-path="url(#clip0)">
<path d="M137.375 11.1146C137.375 13.5208 134.826 14.3229 132.135 14.3229C129.444 14.3229 126.895 13.5208 126.895 11.1146C126.895 8.70833 129.444 7.90625 132.135 7.90625C134.826 7.90625 137.375 8.70833 137.375 11.1146ZM143.04 11.1146C143.04 6.64583 139.074 4.35417 132.135 4.35417C125.195 4.35417 121.23 6.76042 121.23 11.1146C121.23 15.4688 125.195 17.875 132.135 17.875C139.074 17.875 143.04 15.5833 143.04 11.1146ZM114.432 13.2917C113.43 13.7654 112.323 14.0768 111.174 14.2083L110.183 14.3229C107.351 14.3229 105.085 13.1771 105.085 11.1146C105.085 9.05208 107.351 7.90625 110.183 7.90625C110.52 7.8878 110.858 7.92684 111.174 8.02083C112.332 8.19299 113.437 8.54306 114.432 9.05208V13.2917ZM120.097 17.4167V0C118.853 0.684195 117.524 1.2603 116.131 1.71875C115.282 1.94792 114.29 2.29167 114.29 2.29167V5.5C112.482 4.8023 110.484 4.48692 108.484 4.58333C102.677 4.58333 99.4197 7.44792 99.4197 11.1146C99.4197 15.4688 102.96 17.875 108.625 17.875C110.707 17.8649 112.753 17.4314 114.573 16.6146V17.4052L120.097 17.4167ZM92.6218 9.73958H83.5579C83.8411 8.36458 85.2573 7.21875 88.0898 7.21875C90.9223 7.21875 92.1969 8.36458 92.6218 9.73958ZM98.4283 12.2604V11.9167C98.4283 6.64583 94.6045 4.35417 87.9482 4.35417C81.2919 4.35417 77.4681 6.64583 77.4681 11.1146C77.4681 15.8125 81.7168 18.2188 88.6563 18.2188C91.7561 18.2218 94.813 17.6329 97.5786 16.5L95.8791 13.4062C93.7396 14.3167 91.3569 14.7888 88.9396 14.7812C85.8238 14.7812 83.6995 13.9792 83.4162 12.2604H98.4283ZM71.095 11.1146C71.095 13.1771 68.829 14.3229 65.9966 14.3229H65.8549C64.4191 14.2439 62.9961 14.052 61.6062 13.75V9.05208C62.5741 8.50207 63.6913 8.14838 64.8636 8.02083C65.2884 8.02083 65.5717 7.90625 65.9966 7.90625C68.829 7.90625 71.095 9.05208 71.095 11.1146ZM76.6183 11.3438C76.6183 6.98958 73.0777 4.58333 67.4128 4.58333C65.3163 4.49297 63.2372 4.93354 61.4646 5.84375V4.80104H55.7997V21.9885C55.7997 21.9885 57.4991 21.4156 59.3402 20.8427C60.0484 20.7281 60.8981 20.499 61.6062 20.3844V16.8323C63.4362 17.4761 65.4179 17.789 67.4128 17.749C73.2193 17.8635 76.6183 14.8844 76.6183 11.3323V11.3438ZM50.8428 8.70833C52.0525 8.49639 53.2988 8.45761 54.525 8.59375V4.58333C53.8234 4.4882 53.1117 4.44982 52.4007 4.46875C49.7098 4.46875 47.1606 5.04167 46.0276 6.30208V4.80104H40.3627V17.4052H46.1693V13.2802C46.0276 10.874 47.5855 9.26979 50.8428 8.69687V8.70833ZM33.5648 11.1031C33.5648 13.5094 31.0155 14.3115 28.3247 14.3115C25.6338 14.3115 23.0846 13.5094 23.0846 11.1031C23.0846 8.69687 25.6338 7.89479 28.3247 7.89479C31.0155 7.89479 33.5648 8.69687 33.5648 11.1031ZM39.2297 11.1031C39.2297 6.63437 35.2642 4.34271 28.3247 4.34271C22.2349 4.34271 17.4197 6.74896 17.4197 11.1031C17.4197 15.4573 21.3851 17.8635 28.3247 17.8635C35.2642 17.8635 39.2297 15.5719 39.2297 11.1031Z" fill="#E2E8F0"/>
<path d="M0 0L1.69948 3.78125H7.78929V17.4052H14.304V3.78125H20.5354L22.0933 0H0Z" fill="#E2E8F0"/>
<path d="M151.679 11C148.516 14.0107 145.806 17.3147 143.606 20.8427H150.404C152.882 16.4435 156.125 12.3535 160.034 8.69688L160.176 8.58229L152.953 9.61354C152.387 10.1865 151.962 10.7594 151.679 10.9885V11ZM164 4.91563H142.332L145.306 8.35313H160.601C161.734 7.09271 164.142 4.91563 164 4.91563Z" fill="#E2E8F0"/>
</g>
<defs>
<clipPath id="clip0">
<rect width="164" height="22" fill="white"/>
</clipPath>
</defs>
</svg>
